<?xml version="1.0" encoding="UTF-8" standalone="no"?>
<!-- Created with Inkscape (http://www.inkscape.org/) -->

<svg
   width="130mm"
   height="130mm"
   viewBox="0 0 130 130"
   version="1.1"
   id="svg5"
   xml:space="preserve"
   xmlns="http://www.w3.org/2000/svg"
   xmlns:svg="http://www.w3.org/2000/svg"><defs
     id="defs2" /><g
     id="layer6"
     style="display:inline"
     transform="translate(-52.194749,-66.632008)"><ellipse
       style="display:none;fill:none;fill-opacity:1;stroke:#e74c3c;stroke-width:0.147716;stroke-opacity:1"
       id="path6988"
       cx="121.41396"
       cy="-48.128357"
       transform="matrix(0.00303683,0.99999539,-0.99999872,0.00160121,0,0)"
       rx="37.468552"
       ry="38.208252" /></g><g
     id="layer5"
     style="display:inline"
     transform="translate(-52.194749,-66.632008)"><ellipse
       style="display:none;fill:none;fill-opacity:1;stroke:#e74c3c;stroke-width:0.175453;stroke-opacity:1"
       id="ellipse10116"
       cx="-111.59116"
       cy="-47.706795"
       rx="45.268105"
       ry="44.616745"
       transform="matrix(-0.01108079,-0.99993861,-0.99994783,0.01021416,0,0)" /><g
       id="g610"><g
         id="g1307"
         transform="matrix(1.3761009,0,0,1.3511326,-18.371784,-22.128883)"
         style="display:inline"><g
           id="g10182"
           transform="matrix(0.74380341,0,0,0.74380341,6.2894456,-70.778158)"
           style="display:none;opacity:1;fill:#5959ff;fill-opacity:0.37395"><polygon
             points="260.677,69.329 255.286,70.409 253.799,72.721 253.799,75.312 256.378,77.084 260.072,79.408 260.398,82.045 256.447,82.882 255.913,88.517 260.677,88.517 266.998,87.913 270.251,84.021 266.788,82.678 264.883,80.488 262.024,75.858 "
             id="polygon10012"
             transform="matrix(0.2801709,0,0,0.2801709,72.852522,196.09916)"
             style="fill:#5959ff;fill-opacity:0.37395" /><polygon
             points="255.773,78.037 252.637,76.683 248.233,77.706 244.945,82.94 244.945,86.344 248.768,86.344 255.495,81.569 "
             id="polygon10014"
             transform="matrix(0.2801709,0,0,0.2801709,72.852522,196.09916)"
             style="fill:#5959ff;fill-opacity:0.37395" /><path
             d="m 119.03926,223.16311 -0.27345,0.69986 h -1.3168 v 0.68026 h 0.31407 c 0,0 0.0196,0.14317 0.0471,0.33368 l 0.80577,-0.0667 0.49954,-0.31407 0.13028,-0.62982 0.6542,-0.0572 0.25552,-0.52896 -0.59901,-0.12384 z"
             id="path10016"
             style="fill:#5959ff;fill-opacity:0.37395;stroke-width:0.280171" /><polygon
             points="152.739,101.001 152.565,103.366 155.976,103.081 156.324,100.705 154.279,99.096 "
             id="polygon10018"
             transform="matrix(0.2801709,0,0,0.2801709,72.852522,196.09916)"
             style="fill:#5959ff;fill-opacity:0.37395" /><path
             d="m 172.83655,245.58659 c -0.0132,-1.46334 -0.0877,-2.91322 -0.2247,-4.34405 -0.46564,-4.76571 -1.60173,-9.33278 -3.31386,-13.61323 -0.12355,-0.31575 -0.24066,-0.63963 -0.37431,-0.95538 -2.27526,-5.37452 -5.47201,-10.26714 -9.37844,-14.49072 -0.25383,-0.27653 -0.51411,-0.54689 -0.77467,-0.81698 -0.74217,-0.76655 -1.49415,-1.51712 -2.28507,-2.23324 -8.88674,-8.09414 -20.69483,-13.03383 -33.63284,-13.03383 -13.04672,0 -24.939691,5.03103 -33.852488,13.24396 -2.076907,1.91412 -3.984311,4.00728 -5.717728,6.24361 -6.530223,8.45023 -10.429922,19.03313 -10.429922,30.51257 0,27.56825 22.430202,50.00014 50.000138,50.00014 19.39483,0 36.23058,-11.10682 44.51832,-27.28837 1.77068,-3.45366 3.15108,-7.14183 4.08181,-11.00903 0.2345,-0.97668 0.44267,-1.96624 0.61861,-2.96561 0.50459,-2.84009 0.78112,-5.76032 0.78112,-8.74021 -0.006,-0.16615 -0.016,-0.33705 -0.016,-0.50963 z m -9.41094,-19.98375 0.28634,-0.32556 c 0.38075,0.73881 0.74217,1.48602 1.07753,2.24921 l -0.47853,-0.0196 -0.8887,0.12215 v -2.02647 h 0.003 z m -7.22673,-8.72733 0.006,-2.23324 c 0.78784,0.83351 1.54318,1.69111 2.26574,2.58149 l -0.89851,1.3395 -3.15108,-0.0311 -0.195,-0.65588 z m -60.312387,-5.54514 v -0.0846 h 0.99937 l 0.09105,-0.34349 h 1.635638 v 0.71443 l -0.473769,0.62647 h -2.255936 v -0.91308 h 0.0036 z m 1.600056,2.22988 c 0,0 1.002452,-0.1709 1.090425,-0.1709 0.08293,0 0,1.00105 0,1.00105 l -2.264061,0.14316 -0.429782,-0.51747 z m 69.122921,19.84535 h -3.65903 l -2.23324,-1.65862 -2.34363,0.22638 v 1.43224 h -0.74189 l -0.79793,-0.56959 -4.06584,-1.02851 v -2.63361 l -5.14954,0.39869 -1.59838,0.85788 h -2.04104 l -1.00581,-0.10086 -2.48064,1.38012 v 2.5927 l -5.07025,3.66043 0.42026,1.5642 h 1.03018 l -0.27008,1.48911 -0.72284,0.267 -0.0373,3.88989 4.37991,4.99349 h 1.91048 l 0.11403,-0.30287 h 3.43098 l 0.98928,-0.91475 h 1.94663 l 1.06801,1.06773 2.8936,0.2995 -0.38075,3.85431 3.22281,5.68187 -1.69896,3.24213 0.11375,1.52357 1.33782,1.33138 v 3.66883 l 1.75134,2.3568 v 3.05302 h 1.51041 c -8.41802,10.34195 -21.2434,16.95987 -35.58899,16.95987 -25.302798,0 -45.887235,-20.57967 -45.887235,-45.88555 0,-6.36884 1.306997,-12.43987 3.663794,-17.95587 v -1.43056 l 1.640401,-1.99201 c 0.569588,-1.07754 1.18008,-2.12426 1.832878,-3.14772 l 0.07004,0.83323 -1.902641,2.31449 c -0.5906,1.11648 -1.144218,2.25594 -1.6404,3.42285 v 2.60895 l 1.90264,0.91784 v 3.62961 l 1.830917,3.11999 1.489389,0.22637 0.190516,-1.06941 -1.749667,-2.70673 -0.346572,-2.63024 h 1.030189 l 0.436226,2.71009 2.535826,3.69629 -0.652798,1.19633 1.6065,2.46411 4.003923,0.98956 v -0.64607 l 1.600056,0.22637 -0.149612,1.14254 1.256287,0.23114 1.946628,0.52896 2.745675,3.12979 3.5041,0.26364 0.34657,2.85971 -2.40386,1.67654 -0.10927,2.55376 -0.34657,1.56559 3.47019,4.34265 0.26533,1.49051 c 0,0 1.25796,0.33873 1.4143,0.33873 0.14989,0 2.81908,2.02479 2.81908,2.02479 v 7.85151 l 0.95062,0.27009 -0.64271,3.61981 1.59977,2.13882 -0.29922,3.59375 2.11893,3.71759 2.71654,2.37305 2.72634,0.0552 0.26672,-0.88198 -2.00686,-1.68915 0.11711,-0.83659 0.35638,-1.03215 0.0765,-1.04812 -1.35575,-0.0392 -0.68362,-0.859 1.12657,-1.08735 0.15297,-0.81697 -1.25965,-0.36143 0.0731,-0.76178 1.79365,-0.27345 2.72607,-1.30896 0.91475,-1.6827 2.85663,-3.65903 -0.64776,-2.86139 0.87722,-1.52357 2.63332,0.0779 1.77264,-1.40646 0.57463,-5.5174 1.97241,-2.48708 0.34657,-1.5981 -1.79029,-0.57295 -1.18345,-1.94494 -4.03978,-0.0406 -3.20628,-1.21902 -0.14961,-2.28676 -1.06773,-1.87014 -2.89556,-0.0406 -1.67963,-2.62856 -1.48434,-0.72425 -0.0765,0.80073 -2.70981,0.15942 -0.98957,-1.38012 -2.82384,-0.57295 -2.32598,2.69048 -3.66043,-0.62478 -0.267,-4.12608 -2.669195,-0.45724 1.06605,-2.02311 -0.305947,-1.16215 -3.510822,2.34531 -2.206906,-0.27008 -0.789242,-1.7253 0.486657,-1.78048 1.215662,-2.24277 2.801149,-1.42103 h 5.413464 l -0.0179,1.65049 1.94663,0.90635 -0.15634,-2.81908 1.40282,-1.41122 2.83056,-1.86033 0.19696,-1.30532 2.82077,-2.93787 2.99979,-1.66338 -0.26365,-0.21657 2.03292,-1.91245 0.74386,0.19697 0.34013,0.42642 0.77327,-0.85789 0.19051,-0.0829 -0.84639,-0.12047 -0.86405,-0.27653 v -0.83015 l 0.45724,-0.37262 h 1.00273 l 0.46368,0.2034 0.39729,0.80073 0.48665,-0.0748 v -0.0684 l 0.14009,0.0457 1.40646,-0.21629 0.20004,-0.69006 0.79905,0.2034 v 0.74722 l -0.74694,0.50935 h 0.005 l 0.10563,0.82034 2.55376,0.78279 c 0,0 0,0.01 0.006,0.0308 l 0.58247,-0.0504 0.0409,-1.10359 -2.01975,-0.91952 -0.11095,-0.53065 1.67318,-0.56958 0.0765,-1.60314 -1.74967,-1.06605 -0.11543,-2.70841 -2.40415,1.18176 h -0.88057 l 0.2345,-2.06066 -3.27464,-0.76991 -1.3493,1.02375 v 3.11522 l -2.42992,0.77159 -0.97668,2.02955 -1.05288,0.16923 v -2.59915 l -2.28676,-0.31743 -1.14758,-0.74722 -0.4592,-1.68298 4.09358,-2.39266 2.00042,-0.6105 0.20172,1.34595 1.11817,-0.0602 0.0863,-0.67549 1.16719,-0.16783 0.0196,-0.2359 -0.49982,-0.20677 -0.11403,-0.71275 1.43391,-0.12047 0.86601,-0.90019 0.0504,-0.0667 0.01,0.003 0.26364,-0.27345 3.01268,-0.37935 1.32969,1.12965 -3.49289,1.86033 4.44659,1.0498 0.57295,-1.4877 h 1.94663 l 0.68361,-1.29579 -1.37368,-0.34349 v -1.64068 l -4.30314,-1.90601 -2.97542,0.34349 -1.6813,0.87554 0.11403,2.13714 -1.75303,-0.267 -0.27009,-1.18008 1.68299,-1.52665 -3.0533,-0.14989 -0.87554,0.267 -0.38075,1.03019 1.14422,0.19219 -0.22778,1.14422 -1.94326,0.11375 -0.30595,0.76347 -2.82272,0.0776 c 0,0 -0.0765,-1.60005 -0.19696,-1.60005 -0.10899,0 2.21363,-0.0406 2.21363,-0.0406 l 1.67962,-1.639 -0.91644,-0.45724 -1.21566,1.18317 -2.02339,-0.11375 -1.23359,-1.68635 h -2.59271 l -2.70673,2.02003 h 2.47895 l 0.22302,0.7276 -0.64635,0.60854 2.74763,0.0782 0.41662,0.98957 -3.09085,-0.11403 -0.15297,-0.76347 -1.940188,-0.41997 -1.033551,-0.56959 -2.312811,0.0193 c 7.57666,-5.51909 16.88983,-8.7856 26.95973,-8.7856 11.59991,0 22.20718,4.33593 30.2932,11.46319 l -0.54045,0.97332 -2.11922,0.82986 -0.89486,0.96995 0.20817,1.12629 1.0907,0.15297 0.66064,1.64377 1.87827,-0.76011 0.31575,2.20215 h -0.57295 l -1.54626,-0.22946 -1.71212,0.28633 -1.6603,2.34699 -2.36968,0.36955 -0.34209,2.03124 1.00273,0.2359 -0.29306,1.307 -2.3568,-0.47349 -2.15815,0.47349 -0.4592,1.20277 0.37122,2.52434 1.26946,0.59256 2.1321,-0.0129 1.43531,-0.13028 0.44267,-1.14254 2.24641,-2.91994 1.47482,0.30286 1.45493,-1.3168 0.27345,1.03047 3.58058,2.41535 -0.43622,0.5906 -1.61463,-0.0863 0.62478,0.8789 0.99629,0.22133 1.16523,-0.48666 -0.0261,-1.40141 0.52084,-0.2586 -0.41661,-0.44127 -2.3893,-1.33305 -0.6315,-1.769 h 1.98893 l 0.62842,0.62982 1.71857,1.47286 0.0684,1.78385 1.77404,1.88639 0.65785,-2.58626 1.23051,-0.67073 0.22469,2.11586 1.2011,1.3168 2.39266,-0.0389 c 0.46536,1.18989 0.88197,2.39911 1.24031,3.63606 z m -66.48959,-14.58682 1.19633,-0.57267 1.08734,0.26028 -0.37095,1.45997 -1.17195,0.36954 z m 6.3736,3.43433 v 0.94418 h -2.74091 l -1.03355,-0.28802 0.2572,-0.65588 1.3168,-0.54353 h 1.80346 v 0.54353 h 0.397 z m 1.26329,1.31681 v 0.91307 l -0.69006,0.44267 -0.85284,0.1611 c 0,0 0,-1.37368 0,-1.51712 h 1.5429 z m -0.77327,-0.37263 v -1.09071 l 0.94222,0.85929 z m 0.4295,2.19878 v 0.89038 l -0.65756,0.65756 h -1.45997 l 0.22778,-1.00105 0.69006,-0.0602 0.14009,-0.34349 z m -3.63241,-1.82615 h 1.51516 l -1.94662,2.71653 -0.79905,-0.42978 0.17258,-1.14422 z m 6.2027,1.51684 v 0.88702 h -1.45997 l -0.397,-0.57771 v -0.82678 h 0.11375 z m -1.33949,-1.22379 0.41325,-0.43622 0.69986,0.43622 -0.56006,0.46397 z m 58.70785,11.8602 0.14316,-0.17091 c 0.065,0.26056 0.12356,0.52084 0.18548,0.7814 z"
             id="path10020"
             style="fill:#5959ff;fill-opacity:0.37395;stroke-width:0.280171" /><path
             d="m 80.622782,226.71287 v 1.43056 c 0.496182,-1.17028 1.0498,-2.30609 1.6404,-3.42453 z"
             id="path10022"
             style="fill:#5959ff;fill-opacity:0.37395;stroke-width:0.280171" /></g><g
           id="g1928"
           transform="translate(1.1034022,1.1169907)"><circle
             style="display:inline;fill:#ffffff;fill-opacity:1;stroke:none;stroke-width:0.0654305;stroke-dasharray:none"
             id="path2087"
             cx="115.67635"
             cy="130.1228"
             r="63.5"
             transform="matrix(0.72669091,0,0,0.74011982,13.350609,16.378025)" /><g
             id="g4414"
             transform="matrix(0.79016743,0,0,0.78376326,227.80761,99.846509)"
             style="display:inline"><ellipse
               style="display:inline;fill:#5599ff;fill-opacity:0.296104;stroke:none;stroke-width:0.036116;stroke-opacity:1"
               id="path3675"
               cx="-165.28648"
               cy="15.748226"
               rx="47.215439"
               ry="47.267628" /><g
               transform="matrix(0.00742386,0,0,-0.00742386,-212.54609,63.271744)"
               fill="#000000"
               stroke="none"
               id="g2065"
               style="display:inline;fill:#5959ff;fill-opacity:0.6"><g
                 id="g4199"
                 style="fill:#5959ff;fill-opacity:0.6"><path
                   d="m 6125,12790 c -38,-5 -144,-13 -235,-20 C 4178,12649 2566,11808 1459,10460 625,9444 122,8187 30,6895 24,6807 15,6694 9,6643 -3,6525 -3,6294 10,6160 15,6102 24,5985 30,5900 192,3671 1548,1663 3565,665 4296,304 5076,90 5880,30 c 80,-6 192,-15 250,-20 133,-13 365,-13 483,-1 51,6 164,15 252,21 942,67 1886,361 2710,845 1230,721 2185,1832 2710,3153 100,254 173,476 256,787 110,411 163,701 189,1045 6,80 15,192 20,250 13,134 13,345 0,463 -5,51 -14,157 -20,237 -88,1161 -443,2210 -1063,3140 -848,1272 -2109,2190 -3572,2604 -503,142 -751,186 -1220,216 -93,6 -211,15 -262,20 -106,11 -386,11 -488,0 z m 539,-41 c 6,-5 -9,-44 -38,-99 -42,-80 -49,-101 -57,-183 -4,-50 -9,-110 -9,-133 v -41 l 75,-22 c 42,-13 82,-21 89,-18 7,3 18,38 25,79 13,68 17,77 66,126 l 53,53 34,-14 c 147,-64 639,-287 716,-326 l 97,-49 257,22 257,21 80,73 c 44,39 82,72 84,72 3,0 173,-81 378,-180 l 374,-180 h 169 168 l 117,-69 c 334,-198 652,-430 966,-707 177,-156 262,-241 251,-251 -16,-17 -425,142 -663,257 -169,82 -287,152 -340,202 l -31,30 -373,30 -372,29 -74,-73 c -40,-40 -76,-80 -79,-90 -5,-16 48,-158 68,-185 6,-7 39,-13 76,-15 l 66,-3 7,-35 c 16,-73 22,-240 10,-240 -6,0 -58,27 -114,60 -56,33 -106,61 -112,62 -5,0 -44,-59 -86,-133 -67,-118 -79,-134 -100,-131 -13,1 -53,5 -89,8 -36,4 -69,10 -74,15 -6,5 -22,9 -37,9 -26,0 -46,17 -75,66 -10,17 -16,17 -74,6 -43,-8 -72,-20 -90,-37 -33,-32 -44,-32 -90,5 -35,28 -44,30 -117,30 h -80 l -10,-34 -10,-34 40,-8 c 22,-5 42,-14 44,-20 2,-6 -12,-31 -32,-54 -33,-39 -36,-47 -29,-83 l 6,-40 -67,6 c -36,4 -112,23 -168,42 -138,49 -172,56 -232,43 -42,-9 -60,-21 -125,-87 -41,-42 -111,-116 -154,-165 l -80,-88 76,-74 c 75,-73 76,-74 129,-74 81,0 196,-37 222,-72 19,-26 26,-28 86,-27 36,0 100,4 141,7 l 75,7 106,88 c 59,47 117,91 130,95 13,5 70,17 126,27 l 102,18 107,-43 107,-43 104,12 c 58,7 108,9 113,5 4,-5 13,-26 20,-46 6,-21 34,-73 63,-115 28,-43 77,-138 109,-210 32,-73 79,-165 105,-204 40,-60 50,-83 58,-143 10,-67 11,-71 35,-69 14,2 74,-2 133,-8 60,-6 111,-8 114,-5 3,3 -9,28 -27,56 -22,35 -56,67 -104,99 l -71,48 -84,214 c -45,118 -85,221 -88,230 -3,11 10,22 49,38 l 53,22 19,-23 c 10,-13 31,-48 46,-78 16,-30 50,-86 77,-125 45,-66 54,-73 154,-125 59,-30 114,-61 123,-69 12,-10 16,-32 16,-89 0,-61 4,-83 24,-116 22,-38 32,-44 127,-79 57,-20 112,-37 121,-37 10,0 59,22 110,50 79,41 97,56 117,93 l 24,43 -37,51 c -20,28 -36,55 -36,62 0,7 35,11 109,11 h 110 l 88,-96 c 87,-96 89,-97 232,-165 l 144,-69 -7,-83 -7,-82 81,-80 c 44,-44 80,-87 80,-95 0,-9 -16,-31 -35,-50 l -34,-33 -178,77 c -98,43 -243,114 -323,158 -95,53 -155,81 -175,80 -100,-2 -475,-26 -483,-31 -9,-6 -2,-205 8,-214 3,-3 76,-51 162,-107 126,-82 193,-117 335,-176 163,-68 434,-215 463,-249 10,-11 9,-39 -3,-124 -13,-99 -19,-118 -66,-205 -29,-53 -57,-96 -62,-96 -5,0 -49,27 -97,59 -64,43 -134,108 -266,246 l -180,187 -43,-5 c -43,-5 -46,-3 -205,120 l -161,124 -65,-3 c -73,-3 -64,7 -97,-110 l -16,-58 h -44 c -53,0 -75,19 -75,65 0,18 -3,41 -7,51 -3,9 -133,111 -287,226 -155,115 -281,215 -281,223 0,7 27,45 60,84 58,67 63,71 143,96 57,18 80,30 76,38 -4,7 -25,38 -47,70 -39,56 -40,57 -89,57 -46,0 -59,7 -169,82 l -120,82 -114,-28 -115,-28 -33,25 c -17,14 -84,69 -147,122 l -115,96 -95,-5 c -151,-7 -298,16 -425,65 l -108,42 -136,-13 -136,-12 -134,-95 c -74,-52 -143,-99 -155,-104 -12,-5 -77,-18 -146,-29 -112,-18 -131,-25 -187,-61 -35,-23 -98,-52 -142,-65 -70,-22 -84,-30 -117,-72 -21,-26 -43,-51 -49,-55 -5,-4 -64,-5 -130,-2 l -120,6 -132,-121 c -73,-66 -135,-131 -138,-143 -2,-12 -16,-75 -30,-139 -46,-210 -40,-199 -181,-347 -121,-126 -128,-136 -146,-199 -12,-44 -18,-100 -18,-164 0,-94 2,-102 51,-225 59,-148 192,-414 352,-703 107,-193 116,-207 167,-242 51,-34 62,-37 150,-43 52,-3 104,-8 115,-10 11,-3 80,-52 154,-110 74,-58 142,-105 151,-105 43,0 437,-31 450,-35 8,-3 30,-28 48,-56 l 33,-51 48,7 c 55,7 46,15 157,-116 l 78,-91 41,5 c 22,3 59,9 81,13 36,5 43,3 47,-12 10,-33 47,-291 47,-327 0,-45 -104,-191 -194,-270 -40,-35 -66,-66 -66,-78 0,-11 12,-91 26,-177 14,-86 36,-289 49,-451 l 23,-294 -25,-86 c -14,-47 -31,-97 -38,-111 -7,-14 -65,-59 -128,-100 l -116,-75 -140,-419 c -78,-230 -141,-427 -141,-437 0,-11 19,-110 41,-222 l 42,-202 -27,-190 c -25,-169 -31,-194 -55,-225 -15,-19 -54,-71 -88,-115 l -61,-80 -7,-110 c -4,-60 -16,-139 -27,-174 -11,-35 -16,-67 -11,-71 4,-5 41,-18 81,-30 l 72,-21 86,41 87,40 h 150 151 l 187,-60 c 103,-33 193,-60 201,-60 23,0 298,149 504,272 l 191,114 101,11 c 56,6 105,14 110,17 5,3 15,74 22,158 7,84 16,162 20,173 4,11 34,48 66,82 l 59,62 123,15 c 84,11 131,21 147,33 13,10 57,46 100,80 l 76,63 h 77 77 l 225,201 c 347,310 326,288 344,367 8,37 22,113 30,170 9,56 25,143 36,192 20,83 29,99 129,247 l 107,158 115,10 c 104,9 124,15 225,60 92,40 149,76 330,210 l 219,161 69,114 c 117,196 188,321 183,326 -2,2 -33,16 -68,29 l -63,25 -42,-41 -41,-40 -84,68 c -105,86 -107,87 -124,73 -18,-15 -20,-4 -35,142 -8,75 -8,114 0,127 23,43 12,72 -53,140 -73,77 -116,159 -183,346 -42,119 -47,144 -60,290 -12,135 -12,171 -1,230 9,48 12,103 7,175 -7,115 3,537 14,547 8,9 143,-18 163,-32 16,-12 15,-27 -5,-216 -13,-112 -22,-218 -22,-236 0,-17 20,-76 45,-131 l 45,-99 v -179 c 0,-266 18,-394 81,-575 l 51,-148 109,-138 c 60,-76 116,-142 123,-147 10,-7 28,1 63,27 47,34 54,36 138,39 l 89,3 282,310 282,310 17,93 17,93 -36,52 c -20,29 -84,115 -144,192 -124,161 -127,162 -213,99 -34,-25 -54,-33 -61,-26 -5,5 -15,50 -22,98 -10,71 -20,104 -52,162 -26,48 -45,72 -57,72 -10,0 -29,11 -42,25 -30,29 -31,62 -10,215 16,116 20,122 106,166 38,19 49,21 58,10 15,-17 115,-294 137,-379 l 18,-68 122,-104 c 67,-57 199,-176 293,-265 l 171,-162 40,-131 c 59,-189 56,-179 86,-329 l 27,-137 71,-28 71,-28 -3,-200 c -2,-110 -14,-369 -28,-575 -13,-206 -24,-381 -24,-387 0,-7 18,-22 40,-33 23,-12 43,-27 46,-34 3,-8 -15,-85 -40,-172 C 12053,3178 11122,1910 9820,1057 8869,435 7734,76 6605,41 6078,25 5583,65 5118,160 l -142,30 -125,129 -126,130 -790,246 c -434,135 -809,252 -832,261 -47,17 -314,190 -468,304 -244,179 -443,349 -679,580 -334,327 -597,642 -842,1010 -154,231 -137,178 -195,589 -51,361 -51,363 -88,429 -21,37 -51,109 -66,161 l -29,93 17,136 c 10,74 20,139 23,143 3,5 37,28 76,51 l 71,42 -6,167 -7,167 105,78 105,78 v 106 105 l 236,310 c 130,171 244,318 254,329 17,18 20,17 111,-9 l 93,-28 38,43 c 20,24 146,246 279,494 134,248 253,467 264,486 22,35 24,35 161,62 l 139,27 58,63 58,63 -6,55 c -6,55 -37,124 -142,318 -40,73 -53,88 -105,120 -32,20 -87,55 -121,77 l -62,40 -5,185 -5,185 -179,95 -179,94 7,245 7,245 40,73 40,73 -36,60 c -40,65 -54,77 -166,138 -42,23 -81,48 -86,55 -5,6 -20,58 -33,114 l -23,102 17,181 18,181 -103,136 c -57,75 -108,142 -114,150 -8,11 -38,2 -155,-44 -134,-53 -152,-57 -241,-61 -129,-5 -133,1 -67,98 237,351 459,621 757,923 234,238 444,424 684,605 l 107,82 h 148 c 117,0 179,-5 301,-27 l 154,-27 37,41 c 20,23 42,59 48,81 12,41 88,147 140,195 33,32 82,46 155,47 37,0 65,9 121,40 158,87 205,98 540,125 165,14 313,25 328,25 21,0 42,18 100,85 40,47 84,88 97,92 30,7 214,-12 258,-27 20,-8 35,-22 44,-43 7,-18 21,-44 31,-59 10,-14 18,-42 18,-62 0,-20 4,-36 9,-36 5,0 51,45 102,100 80,87 104,122 177,258 46,86 89,162 95,169 7,6 70,16 144,22 73,5 137,12 142,15 9,6 81,129 81,139 0,3 -15,9 -32,13 l -33,7 25,9 c 56,22 752,28 774,7 z M 169,7493 c 93,-357 129,-510 170,-728 l 49,-260 -8,-215 -9,-215 96,-174 96,-174 -48,-171 -48,-171 -9,-305 -10,-305 57,-155 c 59,-161 97,-334 161,-723 l 28,-169 63,-105 c 48,-81 75,-144 119,-275 51,-154 60,-198 34,-172 -15,15 -134,233 -203,370 -318,636 -529,1330 -622,2046 -60,463 -63,1049 -9,1533 15,134 48,351 60,388 9,28 23,20 33,-20 z"
                   id="path2059"
                   style="fill:#5959ff;fill-opacity:0.6" /><path
                   d="m 8235,11353 7,-128 -84,-95 c -56,-63 -92,-114 -108,-152 -13,-32 -21,-60 -19,-63 5,-4 432,14 437,20 6,5 -50,178 -75,235 -14,30 -35,105 -47,165 -24,117 -25,119 -94,140 l -24,7 z"
                   id="path2061"
                   style="fill:#5959ff;fill-opacity:0.6" /><path
                   d="m 9963,3244 -132,-104 -161,-12 -162,-11 -86,-66 c -82,-63 -87,-69 -116,-143 -29,-74 -37,-82 -139,-174 -105,-93 -141,-114 -200,-114 -27,0 -28,-2 -22,-30 6,-27 0,-38 -49,-94 l -56,-64 v -76 -76 h 28 c 15,0 90,7 167,15 77,8 147,15 156,15 9,0 86,78 170,173 407,458 499,555 527,561 15,3 47,8 72,12 37,5 56,17 113,73 92,89 93,91 67,162 -13,32 -28,59 -34,59 -6,-1 -70,-48 -143,-106 z"
                   id="path2063"
                   style="fill:#5959ff;fill-opacity:0.6" /></g></g></g><g
             id="g1434"><g
               aria-label="ENTRADA GLOBAL"
               transform="translate(48.90389,-10.123445)"
               id="text7044"
               style="font-weight:bold;font-size:10.5833px;font-family:Athelas;-inkscape-font-specification:'Athelas Bold';text-align:center;letter-spacing:2.11667px;text-anchor:middle;fill:#0000ff;stroke:#e7e03c;stroke-width:0.026598"><path
                 d="m 3.9386626,120.67803 2.5496012,0.0705 0.041234,-1.49167 q 0.00556,-0.20101 -0.1510854,-0.27945 -0.167221,-0.0787 -0.5360328,-0.14186 -0.084342,-0.0129 -0.104038,-0.0664 -0.030275,-0.0538 -0.027936,-0.13841 8.773e-4,-0.0317 0.013211,-0.0949 0.00205,-0.0741 0.013504,-0.1055 0.2427381,0.0279 0.5701102,0.0581 0.3170853,0.0194 0.5392498,0.0255 0.1904266,0.005 0.4552005,0.002 0.2541947,-0.004 0.583029,-0.0262 0.020281,0.0323 0.028813,0.10667 -0.00175,0.0635 -0.00263,0.0952 -0.00526,0.19042 -0.1536661,0.19691 -0.4037664,0.0524 -0.5436363,0.13319 -0.1501568,0.07 -0.1551283,0.24981 l -0.041234,1.49168 2.3697538,0.0655 q 0.2221645,0.006 0.3038228,-0.26687 0.081658,-0.27301 0.09979,-0.92893 l 0.012283,-0.44433 q 0.00877,-0.31737 -0.070012,-0.5313 -0.078493,-0.2245 -0.2219233,-0.39786 -0.1540098,-0.17366 -0.3515064,-0.30617 -0.2080759,-0.1328 -0.4584688,-0.26677 -0.073177,-0.0338 -0.069961,-0.15015 0.00146,-0.0529 0.035247,-0.12608 0.033785,-0.0732 0.06757,-0.14635 0.084049,0.0235 0.1572266,0.0573 0.07347,0.0232 0.1469399,0.0464 0.1149096,0.0561 0.2515626,0.0917 0.1366531,0.0355 0.2204098,0.0696 0.1052077,0.0241 0.2418607,0.0596 0.1263662,0.0247 0.2524399,0.0599 0.115787,0.0244 0.210123,0.0587 0.09463,0.0238 0.126074,0.0353 0.08346,0.0447 0.07996,0.17161 -0.0023,0.0846 -0.01731,0.24303 -0.01497,0.1584 -0.03081,0.34853 -0.005,0.17985 -0.02081,0.36998 -0.01584,0.19014 -0.01964,0.32767 l -0.06639,2.40149 q -0.0085,0.3068 -0.009,0.7091 0.01034,0.39202 0.02272,0.70998 -0.0429,0.02 -0.106377,0.0182 -0.07405,-0.002 -0.105793,-0.003 -0.158689,-0.004 -0.1663439,-0.11047 -0.062942,-0.40406 -0.1428969,-0.57567 -0.079663,-0.18218 -0.2912477,-0.18803 L 4.166313,122.01829 q -0.1057926,-0.003 -0.1701455,0.0271 -0.074932,0.0297 -0.1198811,0.12374 -0.055236,0.0832 -0.091068,0.2304 -0.046119,0.13636 -0.094577,0.35736 -0.034662,0.10491 -0.1933511,0.10052 -0.052896,-0.001 -0.095213,-0.003 -0.052896,-0.001 -0.1052077,-0.0241 0.044313,-0.45403 0.064543,-0.80285 0.02023,-0.34883 0.027248,-0.60273 l 0.059951,-2.16875 q 0.01316,-0.47606 -0.00922,-0.81548 -0.022087,-0.34999 -0.018578,-0.47694 0.00322,-0.11637 0.099892,-0.16664 0.085511,-0.0294 0.31884,-0.0441 0.2227493,-0.015 0.4675345,-0.0612 0.1807247,-0.0268 0.3511626,-0.0644 0.1704379,-0.0376 0.4161004,-0.11555 0.019696,0.0535 0.0391,0.11754 0.019404,0.0641 0.017649,0.12754 -0.00322,0.11637 -0.099892,0.16663 -0.2785701,0.11935 -0.472506,0.24104 -0.2042228,0.11082 -0.3249813,0.26629 -0.1310453,0.1446 -0.1897905,0.35472 -0.058453,0.19954 -0.066349,0.48518 z"
                 style="fill-opacity:0.788235;stroke:none"
                 id="path961" /><path
                 d="m 10.048762,108.53659 -3.6134871,-1.02874 q -0.2239344,-0.0637 -0.3590116,0.0628 -0.1350772,0.1266 -0.2960895,0.49891 -0.068208,0.12363 -0.2310699,0.0773 -0.030537,-0.009 -0.081431,-0.0232 -0.050894,-0.0145 -0.095993,-0.0493 0.1029826,-0.24578 0.1827097,-0.48718 0.079727,-0.24139 0.1724581,-0.56711 0.092731,-0.32573 0.1492026,-0.56274 0.056472,-0.23701 0.092585,-0.47982 0.053792,0.004 0.1046863,0.0188 0.053792,0.004 0.084329,0.013 0.1730402,0.0493 0.1586238,0.1772 -0.044735,0.35039 0.012101,0.49862 0.056835,0.14823 0.2604121,0.20618 l 5.9546205,1.69524 q -0.0014,0.0436 -0.03039,0.14541 -0.0159,0.0945 -0.0246,0.12504 -0.02028,0.0712 -0.08418,0.14109 -0.05372,0.0727 -0.191767,0.13247 l -6.2311694,2.56154 4.3972584,1.25187 q 0.101788,0.029 0.175938,0.0391 0.06687,-0.003 0.13515,-0.0495 0.061,-0.0597 0.136489,-0.17022 0.06821,-0.12363 0.169779,-0.32579 0.02467,-0.048 0.07408,-0.0669 0.04213,-0.032 0.154095,-1.5e-4 0.07125,0.0203 0.167245,0.0696 -0.0928,0.24868 -0.176914,0.46682 -0.07393,0.22103 -0.157969,0.51622 -0.08404,0.29519 -0.152101,0.57291 -0.05499,0.27045 -0.09838,0.50018 -0.04651,0.009 -0.09741,-0.006 -0.05089,-0.0145 -0.08143,-0.0232 -0.101788,-0.029 -0.13381,-0.0711 -0.02912,-0.0523 -0.02481,-0.1061 0.04325,-0.38383 -0.01359,-0.53205 -0.05683,-0.14823 -0.250233,-0.20329 l -5.1504916,-1.4661 q -0.1628614,-0.0464 -0.2761684,0.0424 -0.120588,0.0757 -0.2787024,0.43783 -0.065311,0.11346 -0.2281721,0.0671 -0.020358,-0.006 -0.040715,-0.0116 -0.030537,-0.009 -0.058175,-0.0276 l -0.078533,-0.0334 q 0.050749,-0.1396 0.098599,-0.26903 0.037672,-0.13233 0.085523,-0.26175 0.073931,-0.22104 0.1478628,-0.44208 0.06665,-0.23411 0.1072203,-0.37661 0.084037,-0.29519 0.1406546,-0.3781 0.046438,-0.0858 0.137975,-0.13679 z"
                 style="fill-opacity:0.788235;stroke:none"
                 id="path963" /><path
                 d="m 10.319402,98.677201 4.788088,2.839659 q 0.09103,0.054 0.160147,0.0827 0.06541,0.0142 0.14332,-0.0134 0.0779,-0.0276 0.173701,-0.10616 0.08669,-0.0839 0.221973,-0.2498 0.108288,-0.12034 0.235727,-0.0448 0.02731,0.0162 0.07653,0.0577 0.05462,0.0324 0.08563,0.0631 -0.190961,0.28049 -0.408914,0.6065 -0.203452,0.3223 -0.354612,0.57718 -0.156559,0.26398 -0.341806,0.59708 -0.170744,0.3294 -0.325293,0.63149 -0.04721,-0.003 -0.107224,-0.0267 -0.05462,-0.0324 -0.08193,-0.0486 -0.06372,-0.0378 -0.08933,-0.0776 -0.02932,-0.0543 0.01186,-0.16523 0.154234,-0.3638 0.129999,-0.48891 -0.02794,-0.13962 -0.209997,-0.24759 L 9.6391801,99.824157 9.1641046,100.62521 q -0.1511604,0.25488 -0.2045151,0.46932 -0.057059,0.19995 -0.028804,0.40128 0.024551,0.18682 0.1327216,0.39863 0.1044665,0.1973 0.276357,0.4469 0.060331,0.085 9.467e-4,0.18513 -0.032392,0.0546 -0.093786,0.11664 -0.070497,0.0566 -0.1102972,0.0822 -0.1806778,-0.19328 -0.3175358,-0.33597 -0.1459609,-0.14809 -0.293616,-0.27257 -0.1877708,-0.16058 -0.3408245,-0.27596 -0.1530538,-0.11538 -0.2096807,-0.18588 -0.060331,-0.085 0.00445,-0.19423 0.059384,-0.10013 0.2594477,-0.37523 0.2054618,-0.28419 0.4537968,-0.70292 L 10.35553,97.578874 q 0.242936,-0.409628 0.388382,-0.717114 0.150845,-0.316589 0.215628,-0.425823 0.05938,-0.100131 0.168303,-0.09706 0.08902,0.01588 0.258268,0.103952 0.174648,0.07897 0.411006,0.157622 0.180047,0.06987 0.374595,0.136028 0.190844,0.05166 0.4525,0.108404 -0.0088,0.05631 -0.02467,0.14533 -0.01958,0.07452 -0.05198,0.129134 -0.05938,0.100131 -0.168303,0.09706 -0.301457,-0.03113 -0.530091,-0.01907 -0.232338,-0.0024 -0.413448,0.07472 -0.184814,0.06266 -0.3383,0.21772 -0.15719,0.140562 -0.302952,0.386339 z"
                 style="fill-opacity:0.788235;stroke:none"
                 id="path965" /><path
                 d="m 18.533049,93.412004 -0.320995,0.322585 1.567915,1.560188 q 0.172546,0.171695 0.389401,0.103807 0.216818,-0.08285 0.612686,-0.390658 0.119514,-0.0901 0.25455,0.04427 0.06002,0.05972 0.120105,0.149374 -0.231489,0.202628 -0.574953,0.517785 -0.328498,0.31512 -0.709213,0.697722 -0.268741,0.270071 -0.515049,0.532604 -0.231342,0.262496 -0.432823,0.494983 -0.04494,-0.01486 -0.08245,-0.05218 -0.03751,-0.03733 -0.06002,-0.05972 -0.127534,-0.126905 -0.06042,-0.224357 0.126758,-0.187402 0.201297,-0.307323 0.06704,-0.127386 0.08928,-0.209759 0.01474,-0.08984 -0.01534,-0.149634 -0.03012,-0.07476 -0.105138,-0.149411 l -3.758496,-3.739971 q -0.15004,-0.1493 -0.329533,-0.103955 -0.172028,0.03784 -0.515604,0.308099 -0.05233,0.02258 -0.104732,0.01523 -0.0524,-0.0074 -0.127423,-0.082 -0.03001,-0.02986 -0.06752,-0.06719 -0.03751,-0.03733 -0.04509,-0.07473 0.224024,-0.195125 0.507768,-0.450267 0.283708,-0.270108 0.500193,-0.487666 l 1.127217,-1.1328 q 0.395646,-0.397606 0.806702,-0.615644 0.411056,-0.218038 0.807589,-0.256436 0.403998,-0.0459 0.763539,0.08792 0.367006,0.126313 0.667086,0.424914 0.397605,0.395645 0.481347,0.971671 0.0837,0.56106 -0.176757,1.152903 l 2.889962,0.531676 q 0.329422,0.05905 0.576137,-0.03884 0.254181,-0.105398 0.440991,-0.218113 0.04483,-0.03005 0.09723,-0.02269 0.0449,-1.1e-4 0.112419,0.06708 0.03001,0.02986 0.06752,0.06718 0.03751,0.03733 0.06009,0.08965 -0.08962,0.07506 -0.246419,0.217631 -0.1493,0.15004 -0.321032,0.307619 -0.164268,0.150077 -0.336,0.307655 -0.156765,0.157542 -0.261275,0.26257 -0.156766,0.157542 -0.441065,0.188178 -0.291801,0.02317 -0.658659,-0.04327 z m -0.472144,-0.275725 q 0.231415,-0.232562 0.373028,-0.464901 0.141614,-0.23234 0.170956,-0.471886 0.02184,-0.247011 -0.09102,-0.493689 -0.105398,-0.25418 -0.382971,-0.530386 -0.465123,-0.462831 -0.959145,-0.506511 -0.494022,-0.04368 -1.061363,0.52647 l -0.223951,0.22506 1.950517,1.940903 z"
                 style="fill-opacity:0.788235;stroke:none"
                 id="path967" /><path
                 d="m 27.986841,86.968939 -1.905529,1.143868 0.285286,1.544522 q 1.3e-5,0.06171 0.02362,0.121601 0.02361,0.05989 0.03995,0.08711 0.05992,0.09981 0.188785,0.108861 0.137942,0.0036 0.455544,-0.125333 0.137929,-0.05811 0.230528,0.09615 0.03813,0.06352 0.07445,0.165151 -0.255891,0.128921 -0.539003,0.274183 -0.277666,0.154336 -0.54081,0.312298 -0.181479,0.10894 -0.375659,0.237848 -0.19418,0.128907 -0.422836,0.303198 -0.03994,-0.0254 -0.06717,-0.07077 -0.02724,-0.04537 -0.04358,-0.07259 -0.103493,-0.172405 0.009,-0.25229 0.248611,-0.2233 0.328443,-0.357629 0.08891,-0.139775 0.0689,-0.337608 L 24.846117,83.60819 q -0.02001,-0.197833 0.125176,-0.284985 0.04537,-0.02723 0.09619,-0.0454 0.04537,-0.02724 0.105261,-0.05084 l 5.422332,4.077202 q 0.136149,0.103427 0.333982,0.08342 0.192386,-0.02908 0.390206,-0.110799 0.15245,-0.05448 0.245049,0.09977 0.04358,0.07259 0.0799,0.174225 -0.301261,0.156156 -0.593447,0.306864 -0.286739,0.159783 -0.531736,0.306852 -0.127035,0.07626 -0.308514,0.185197 -0.176032,0.118014 -0.361138,0.241475 -0.185106,0.12346 -0.375659,0.237847 -0.176032,0.118014 -0.29762,0.203346 -0.03994,-0.0254 -0.06717,-0.07077 -0.02724,-0.04537 -0.04358,-0.07259 -0.04902,-0.08167 -0.04359,-0.134303 0.0091,-0.06716 0.03991,-0.09802 0.208687,-0.186992 0.284893,-0.306799 0.07983,-0.134329 0.009,-0.25229 -0.03268,-0.05444 -0.108926,-0.119768 z m -0.444754,-0.350204 -1.996858,-1.578645 0.436138,2.515526 z"
                 style="fill-opacity:0.788235;stroke:none"
                 id="path969" /><path
                 d="m 39.904006,81.118695 q 0.178948,0.598224 0.152075,1.246968 -0.02687,0.648744 -0.310175,1.252682 -0.286335,0.593798 -0.857438,1.084986 -0.574135,0.481049 -1.47654,0.750987 l -2.078573,0.621768 q -0.263624,0.07886 -0.615469,0.195153 -0.338673,0.123401 -0.646928,0.237704 -0.03241,-0.03449 -0.04758,-0.08519 -0.01516,-0.0507 -0.02426,-0.08111 -0.03336,-0.111533 -0.01204,-0.15105 0.02842,-0.05269 0.07609,-0.07799 0.278877,-0.138655 0.426983,-0.271331 0.155211,-0.145849 0.09152,-0.358776 l -1.51954,-5.07983 q -0.06066,-0.202787 -0.237015,-0.238407 -0.169249,-0.04879 -0.542325,-0.0035 -0.08718,0.004 -0.119592,-0.03051 -0.03544,-0.04463 -0.05971,-0.125746 -0.0091,-0.03042 -0.02426,-0.08111 -0.01516,-0.0507 -0.01005,-0.10746 0.218993,-0.04342 0.384257,-0.0818 0.172369,-0.05156 0.317353,-0.08388 0.144985,-0.03232 0.286936,-0.07479 0.141951,-0.04246 0.294042,-0.08796 l 2.058295,-0.615702 q 0.861847,-0.257806 1.589626,-0.188295 0.737918,0.06648 1.307364,0.382191 0.579585,0.31268 0.9816,0.844177 0.412153,0.528465 0.615365,1.207803 z m -1.341607,0.611204 q -0.236575,-0.790871 -0.588933,-1.304083 -0.352358,-0.513211 -0.813391,-0.761933 -0.453928,-0.261896 -1.029704,-0.266409 -0.56867,-0.01769 -1.237869,0.182493 l -0.628641,0.188047 1.558969,5.211642 q 0.03033,0.101394 0.08198,0.163271 0.05165,0.06188 0.155036,0.07514 0.103386,0.01326 0.271683,-0.01499 0.168296,-0.02825 0.442059,-0.11014 1.31812,-0.394292 1.727344,-1.278923 0.419364,-0.887665 0.06147,-2.084112 z"
                 style="fill-opacity:0.788235;stroke:none"
                 id="path971" /><path
                 d="m 46.978942,81.561334 -2.219871,0.107919 -0.478251,1.496066 q -0.02914,0.0544 -0.03663,0.118334 -0.0075,0.06394 -0.0059,0.09565 0.0057,0.116279 0.114958,0.185135 0.119877,0.06834 0.460712,0.104753 0.149019,0.01395 0.157756,0.19365 0.0036,0.074 -0.01241,0.180732 -0.286439,-0.0073 -0.604592,-0.01299 -0.317638,0.0048 -0.624192,0.01975 -0.211416,0.01028 -0.44346,0.03216 -0.232044,0.02188 -0.515914,0.06746 -0.0232,-0.04125 -0.02577,-0.09411 -0.0026,-0.05285 -0.0041,-0.08457 -0.0098,-0.200845 0.127142,-0.218097 0.324612,-0.07936 0.458435,-0.160032 0.144395,-0.08119 0.220225,-0.265005 l 2.25156,-6.21264 q 0.07583,-0.183815 0.244964,-0.192037 0.05285,-0.0026 0.106222,0.0054 0.05285,-0.0026 0.116793,0.0049 l 2.852822,6.155214 q 0.07113,0.155479 0.254949,0.231309 0.183301,0.06526 0.396259,0.08669 0.160104,0.024 0.16884,0.203708 0.0041,0.08457 -0.01189,0.191302 -0.339294,-0.0047 -0.668017,-0.0099 -0.32821,0.0054 -0.613622,0.01923 -0.147991,0.0072 -0.359407,0.01747 -0.210903,0.02085 -0.432376,0.04221 -0.221473,0.02136 -0.44346,0.03216 -0.210903,0.02085 -0.35838,0.03861 -0.0232,-0.04125 -0.02577,-0.09411 -0.0026,-0.05285 -0.0041,-0.08457 -0.0046,-0.09514 0.02503,-0.138962 0.03971,-0.05491 0.08148,-0.06754 0.272272,-0.06622 0.396038,-0.135808 0.133823,-0.08068 0.127143,-0.218097 -0.0031,-0.06342 -0.03942,-0.15702 z m -0.226541,-0.518777 -1.014146,-2.334752 -0.804034,2.423143 z"
                 style="fill-opacity:0.788235;stroke:none"
                 id="path973" /><path
                 d="m 62.338522,86.281697 q -0.255127,-0.0349 -0.476793,-0.07049 -0.221667,-0.03559 -0.460409,-0.08757 -0.231774,-0.03873 -0.507806,-0.113369 -0.265924,-0.0715 -0.619675,-0.181355 -0.909644,-0.282486 -1.501387,-0.732214 -0.581636,-0.446589 -0.868032,-1.02313 -0.283258,-0.586649 -0.300907,-1.279206 -0.0075,-0.689418 0.231001,-1.457562 0.185185,-0.596322 0.575652,-1.139977 0.390466,-0.543655 0.955519,-0.900111 0.578298,-0.363424 1.299103,-0.472037 0.734052,-0.115583 1.583053,0.148071 0.586215,0.182046 1.164396,0.461334 0.591427,0.272319 1.093271,0.583311 -0.06453,0.279171 -0.135715,0.722503 -0.07118,0.443333 -0.08555,0.882146 -0.05367,-0.0056 -0.130702,-0.0073 -0.07389,-0.01186 -0.114317,-0.02442 -0.08086,-0.02511 -0.135223,-0.06416 -0.04112,-0.04601 -0.03622,-0.13315 0.0043,-0.763307 -0.402354,-1.166645 -0.403536,-0.413445 -1.121144,-0.636294 -0.545787,-0.169492 -1.029923,-0.109282 -0.470891,0.05324 -0.863747,0.319107 -0.37961,0.258898 -0.685015,0.707068 -0.292159,0.441201 -0.483621,1.057738 -0.210295,0.677179 -0.224349,1.293399 -0.01405,0.616221 0.17058,1.127915 0.187773,0.501587 0.570404,0.875294 0.395877,0.366739 0.992199,0.551924 0.212251,0.06591 0.380243,0.09592 0.178099,0.03314 0.375721,0.03911 l 0.451977,-1.455431 q 0.08475,-0.272893 -0.03547,-0.421046 -0.117082,-0.158259 -0.48546,-0.328067 -0.07458,-0.04532 -0.08607,-0.115383 -0.0084,-0.08017 0.01048,-0.140809 0.0094,-0.03032 0.02825,-0.09096 0.02894,-0.05751 0.04846,-0.08469 0.148469,0.05719 0.327259,0.123792 0.188897,0.06974 0.377795,0.139486 0.202143,0.06277 0.380933,0.129379 0.181929,0.0565 0.313322,0.0973 0.131393,0.0408 0.303214,0.09416 0.185068,0.04639 0.366997,0.102887 0.195175,0.04953 0.370135,0.09278 0.185067,0.04639 0.309492,0.07395 0.0045,0.05681 -0.01117,0.107349 -0.01569,0.05054 -0.02511,0.08086 -0.02825,0.09096 -0.08437,0.128945 -0.04288,0.03101 -0.09969,0.03553 -0.335984,-0.06001 -0.495626,-0.0099 -0.149534,0.0533 -0.215447,0.26555 l -0.546139,1.758646 q -0.02825,0.09096 -0.09762,0.135913 -0.06937,0.04495 -0.314387,0.01319 z"
                 style="fill-opacity:0.788235;stroke:none"
                 id="path975" /><path
                 d="m 68.190692,88.204562 q -0.112503,0.191671 0.09643,0.400208 0.208933,0.208538 0.774819,0.54069 l 0.346833,0.203578 q 0.228179,0.133932 0.419255,0.184728 0.205561,0.04703 0.402986,0.0034 0.197426,-0.04365 0.404971,-0.167265 0.222029,-0.127383 0.47779,-0.333141 0.07024,-0.05695 0.179766,0.0073 0.04564,0.02679 0.09345,0.09167 0.04782,0.06488 0.09564,0.129765 -0.244452,0.249212 -0.511919,0.558544 -0.252984,0.305562 -0.491482,0.607354 -0.07341,0.104169 -0.14425,0.09941 -0.06171,5.95e-4 -0.116471,-0.03155 -0.07302,-0.04286 -0.204568,-0.132345 -0.122423,-0.08413 -0.272228,-0.18433 -0.155163,-0.09107 -0.314095,-0.196633 -0.149804,-0.100201 -0.268458,-0.169846 L 67.087289,88.599992 Q 66.822601,88.44463 66.47041,88.25018 q -0.34842,-0.179966 -0.63295,-0.322431 0.0032,-0.04722 0.03532,-0.101986 0.0375,-0.06389 0.05357,-0.09127 0.08036,-0.136908 0.176989,-0.09246 0.384334,0.139687 0.573228,0.152386 0.19802,0.01806 0.305166,-0.164487 l 2.684008,-4.572721 q 0.05357,-0.09127 0.06746,-0.15675 0.01925,-0.07461 -0.0087,-0.152384 -0.02798,-0.07778 -0.130558,-0.174807 -0.0881,-0.100796 -0.263696,-0.240681 -0.0752,-0.08095 -1.98e-4,-0.208735 0.01607,-0.02738 0.04822,-0.08214 0.03214,-0.05476 0.07718,-0.08968 0.281356,0.189688 0.59922,0.400805 0.323222,0.20199 0.578783,0.351994 0.12778,0.075 0.29207,0.171434 0.169647,0.0873 0.343063,0.189093 0.187901,0.09802 0.366675,0.19068 0.187901,0.09802 0.339293,0.174609 -0.01766,0.05099 -0.0498,0.105756 -0.02302,0.06012 -0.03909,0.0875 -0.075,0.127781 -0.182346,0.101589 -0.424613,-0.175601 -0.615094,-0.164688 -0.175996,0.0071 -0.283142,0.189686 z"
                 style="fill-opacity:0.788235;stroke:none"
                 id="path977" /><path
                 d="m 75.012729,89.617673 q 0.513816,-0.533689 1.159797,-0.807915 0.653606,-0.266885 1.341966,-0.279944 0.68836,-0.01306 1.344278,0.236467 0.670882,0.249242 1.20457,0.763058 0.548938,0.528497 0.838128,1.174194 0.28919,0.645697 0.301965,1.319093 0.0204,0.680736 -0.236467,1.344278 -0.256867,0.663541 -0.792703,1.220103 -0.513816,0.533688 -1.174761,0.808198 -0.645982,0.274226 -1.334342,0.287285 -0.68102,0.0054 -1.351902,-0.243807 Q 75.649717,95.181816 75.116028,94.668 74.567091,94.139504 74.2779,93.493807 73.98871,92.84811 73.975935,92.174714 q -0.01278,-0.673396 0.236751,-1.329314 0.256867,-0.663541 0.800043,-1.227727 z m 0.599352,4.763976 q 0.320214,0.30829 0.711558,0.420623 0.398685,0.104709 0.816551,0.0369 0.42549,-0.06047 0.840234,-0.292881 0.422367,-0.225074 0.782038,-0.598656 0.521156,-0.541313 0.862173,-1.109148 0.34864,-0.560495 0.458134,-1.101483 0.124459,-0.541272 -0.01225,-1.040164 -0.121743,-0.499177 -0.54107,-0.902889 -0.266844,-0.256908 -0.635884,-0.37715 -0.3617,-0.127865 -0.77251,-0.08265 -0.403469,0.03759 -0.826121,0.247704 -0.422651,0.21011 -0.811683,0.614188 -0.543177,0.564186 -0.898874,1.147269 -0.348072,0.590423 -0.479871,1.139319 -0.116835,0.548612 -0.0027,1.040448 0.121459,0.484213 0.510289,0.858564 z"
                 style="fill-opacity:0.788235;stroke:none"
                 id="path979" /><path
                 d="m 84.684816,100.63411 q 0.200635,0.39889 0.281206,0.78573 0.09516,0.39017 0.05337,0.7414 -0.03283,0.34561 -0.20492,0.62872 -0.166457,0.29207 -0.471139,0.48351 -0.412217,0.259 -0.82721,0.29476 -0.409361,0.0447 -0.804607,-0.1069 -0.380653,-0.1483 -0.74156,-0.48399 -0.360907,-0.33569 -0.670584,-0.82855 l -0.974075,-1.5503 q -0.101349,-0.1613 -0.23085,-0.36741 -0.132832,-0.19152 -0.263365,-0.359479 -0.07653,-0.101904 -0.144093,-0.209439 -0.07653,-0.101904 -0.138462,-0.200478 l 0.0571,-0.04838 q 0.02125,-0.02585 0.03918,-0.03711 0.02688,-0.01689 0.04481,-0.02815 0.09857,-0.06194 0.142349,-0.05194 0.05837,0.01332 0.09548,0.0525 0.241874,0.285491 0.401352,0.360273 0.165108,0.08375 0.344333,-0.02886 l 4.489581,-2.820876 q 0.179224,-0.11261 0.177718,-0.27415 0.0075,-0.167171 -0.152737,-0.541481 -0.02712,-0.08295 0.0064,-0.129025 0.04251,-0.05171 0.114197,-0.09675 0.01792,-0.01126 0.03584,-0.02252 0.02688,-0.01689 0.05044,-0.01919 0.03584,-0.02252 0.06836,-0.03045 0.150993,0.280098 0.341398,0.622925 0.204998,0.346157 0.340129,0.561227 l 0.777008,1.236651 q 0.360352,0.573519 0.480336,1.023088 0.128946,0.443938 0.07256,0.79184 -0.05639,0.347894 -0.259956,0.600794 -0.188979,0.25623 -0.466778,0.43077 -0.519752,0.32657 -1.047354,0.18311 -0.51864,-0.14909 -0.988589,-0.57875 z m -3.212641,0.11871 q -0.206108,0.1295 -0.150597,0.3571 0.0701,0.23093 0.227757,0.48184 0.388504,0.61833 0.839817,0.75973 0.460274,0.13576 1.051716,-0.23585 0.322604,-0.2027 0.491361,-0.47122 0.174388,-0.25955 0.208488,-0.54346 0.04306,-0.28953 -0.03394,-0.59112 -0.077,-0.30159 -0.251548,-0.579389 l -0.304046,-0.483907 z m 2.617157,-1.444421 q 0.219589,0.349489 0.455595,0.526176 0.236005,0.176685 0.472803,0.215385 0.25139,0.042 0.482321,-0.0281 0.23656,-0.06114 0.45163,-0.196274 0.206109,-0.129501 0.340289,-0.313801 0.148773,-0.180969 0.193104,-0.408806 0.04433,-0.227837 -0.03037,-0.505873 -0.06574,-0.283667 -0.26844,-0.606272 l -0.09009,-0.143379 -2.09693,1.317535 z"
                 style="fill-opacity:0.788235;stroke:none"
                 id="path981" /><path
                 d="m 87.218732,109.55856 -0.70496,-2.10773 -1.569675,-0.0553 q -0.06025,-0.0133 -0.123833,-0.003 -0.06358,0.0101 -0.09369,0.0202 -0.110405,0.0369 -0.147092,0.16079 -0.03333,0.13391 0.02391,0.47187 0.02692,0.14723 -0.143701,0.2043 -0.07026,0.0235 -0.17734,0.037 -0.07056,-0.27771 -0.151199,-0.58552 -0.09067,-0.30446 -0.188024,-0.59553 -0.06714,-0.20074 -0.151028,-0.41819 -0.08389,-0.21745 -0.204638,-0.47837 0.03343,-0.0335 0.08362,-0.0503 0.05018,-0.0168 0.08029,-0.0269 0.190699,-0.0638 0.244376,0.0633 0.164287,0.291 0.278185,0.39798 0.117254,0.11702 0.314735,0.14024 l 6.590216,0.48526 q 0.197481,0.0232 0.251192,0.18382 0.01678,0.0502 0.02353,0.10372 0.01678,0.0502 0.02689,0.11377 l -5.152825,4.41289 q -0.13041,0.11058 -0.153636,0.30806 -0.01319,0.19412 0.02384,0.40493 0.02024,0.16062 -0.150381,0.21769 -0.08029,0.0268 -0.187376,0.0404 -0.08735,-0.32789 -0.171341,-0.64574 -0.09403,-0.3145 -0.184667,-0.5855 -0.047,-0.14051 -0.114136,-0.34125 -0.07718,-0.19737 -0.157709,-0.40479 -0.08053,-0.20742 -0.151029,-0.41819 -0.07718,-0.19738 -0.13421,-0.33454 0.03343,-0.0335 0.08362,-0.0503 0.05018,-0.0168 0.0803,-0.0269 0.09033,-0.0302 0.140549,-0.0135 0.06361,0.0234 0.08708,0.0602 0.137465,0.24417 0.237969,0.34447 0.113898,0.10698 0.244376,0.0633 0.06022,-0.0202 0.140481,-0.0805 z m 0.438057,-0.35855 1.972936,-1.60844 -2.550332,-0.11789 z"
                 style="fill-opacity:0.788235;stroke:none"
                 id="path983" /><path
                 d="m 87.427046,117.68345 q -0.221412,0.0193 -0.270429,0.31037 -0.04902,0.2911 0.0079,0.94479 l 0.03489,0.40065 q 0.02295,0.26359 0.09219,0.44878 0.0807,0.19482 0.23062,0.33049 0.149917,0.13567 0.370883,0.23329 0.232428,0.10724 0.548285,0.1966 0.0871,0.0243 0.09812,0.1508 0.0046,0.0527 -0.02061,0.12928 -0.0252,0.0766 -0.05041,0.15311 -0.344733,-0.055 -0.751809,-0.0939 -0.395614,-0.0293 -0.779767,-0.049 -0.127439,4.8e-4 -0.164577,-0.06 -0.03622,-0.05 -0.04173,-0.11322 -0.0073,-0.0844 -0.01057,-0.24342 -0.0023,-0.14853 -0.0074,-0.32868 -0.01561,-0.17924 -0.02159,-0.36994 -0.0051,-0.18016 -0.017,-0.31722 l -0.208393,-2.39335 q -0.02662,-0.30576 -0.07205,-0.70549 -0.05505,-0.38827 -0.103681,-0.70274 0.04034,-0.0248 0.103598,-0.0303 0.0738,-0.006 0.105434,-0.009 0.158151,-0.0138 0.177875,0.0907 0.108689,0.39422 0.207724,0.55557 0.09995,0.1719 0.310822,0.15354 l 5.282248,-0.45994 q 0.105434,-0.009 0.166858,-0.0358 0.07197,-0.0275 0.119177,-0.0954 0.04721,-0.0679 0.06691,-0.20767 0.03116,-0.13019 0.04351,-0.35435 0.02245,-0.10819 0.170057,-0.12104 0.03163,-0.003 0.09489,-0.008 0.06326,-0.006 0.117813,0.011 0.0083,0.33923 0.02025,0.72063 0.0225,0.38048 0.04821,0.67569 0.01285,0.14761 0.02938,0.33739 0.02707,0.18886 0.04451,0.38919 0.0289,0.20995 0.05689,0.40936 0.0289,0.20995 0.05414,0.37772 -0.0518,0.0151 -0.11506,0.0206 -0.06234,0.0161 -0.09397,0.0188 -0.147607,0.0129 -0.188418,-0.0898 -0.102735,-0.44786 -0.22194,-0.59683 -0.107743,-0.13934 -0.318611,-0.12098 z"
                 style="fill-opacity:0.788235;stroke:none"
                 id="path985" /></g><g
               style="display:inline;opacity:1;fill:none;fill-rule:nonzero;stroke:none;stroke-width:0;stroke-linecap:butt;stroke-linejoin:miter;stroke-miterlimit:10;stroke-dasharray:none"
               transform="matrix(0.55710487,0,0,0.55617631,72.217792,91.211876)"
               id="g10206">
	<rect
   x="4.6199999"
   y="11.92"
   rx="0"
   ry="0"
   width="81.239998"
   height="69.059998"
   style="display:none;opacity:1;fill:#e1eff4;fill-rule:nonzero;stroke:none;stroke-width:1;stroke-linecap:butt;stroke-linejoin:miter;stroke-miterlimit:10;stroke-dasharray:none"
   id="rect10186" />
	<polygon
   points="7.47,81.07 7.47,15.63 29.56,24.86 29.56,71.84 "
   style="opacity:1;fill:#ffff00;fill-opacity:1;fill-rule:nonzero;stroke:none;stroke-width:1;stroke-linecap:butt;stroke-linejoin:miter;stroke-miterlimit:10;stroke-dasharray:none"
   id="polygon10188"
   transform="translate(0,5.715)" />
	<polygon
   points="82.53,80.98 82.53,15.54 60.44,24.77 60.44,71.75 "
   style="opacity:1;fill:#ffff00;fill-opacity:1;fill-rule:nonzero;stroke:none;stroke-width:1;stroke-linecap:butt;stroke-linejoin:miter;stroke-miterlimit:10;stroke-dasharray:none"
   id="polygon10190"
   transform="translate(0,5.715)" />
	<path
   d="M 7.475,87.789 C 7.281,87.789 7.087,87.732 6.921,87.621 6.643,87.435 6.475,87.124 6.475,86.789 V 21.341 c 0,-0.334 0.167,-0.647 0.446,-0.833 0.279,-0.186 0.632,-0.219 0.94,-0.09 l 22.085,9.233 c 0.372,0.156 0.614,0.52 0.614,0.923 v 46.981 c 0,0.403 -0.242,0.767 -0.614,0.923 L 7.861,87.712 c -0.124,0.052 -0.255,0.077 -0.386,0.077 z m 1,-64.946 V 85.287 L 28.56,76.89 V 31.241 Z"
   style="opacity:1;fill:#0000ff;fill-opacity:0.788235;fill-rule:nonzero;stroke:none;stroke-width:1;stroke-linecap:butt;stroke-linejoin:miter;stroke-miterlimit:10;stroke-dasharray:none"
   stroke-linecap="round"
   id="path10192" />
	<ellipse
   cx="23.681"
   cy="52.630997"
   rx="1.441"
   ry="1.966"
   style="opacity:1;fill:#0000ff;fill-opacity:0.788235;fill-rule:nonzero;stroke:none;stroke-width:1;stroke-linecap:butt;stroke-linejoin:miter;stroke-miterlimit:10;stroke-dasharray:none"
   id="ellipse10194" />
	<path
   d="m 82.525,87.699 c -0.131,0 -0.262,-0.025 -0.386,-0.077 L 60.053,78.39 C 59.681,78.234 59.439,77.87 59.439,77.467 V 30.486 c 0,-0.403 0.242,-0.767 0.614,-0.923 L 82.139,20.33 c 0.308,-0.129 0.661,-0.095 0.94,0.09 0.278,0.186 0.445,0.498 0.445,0.833 V 86.7 c 0,0.335 -0.167,0.646 -0.445,0.832 -0.166,0.111 -0.359,0.167 -0.554,0.167 z M 61.439,76.801 81.525,85.197 V 22.754 l -20.086,8.397 z"
   style="opacity:1;fill:#0000ff;fill-opacity:0.788235;fill-rule:nonzero;stroke:none;stroke-width:1;stroke-linecap:butt;stroke-linejoin:miter;stroke-miterlimit:10;stroke-dasharray:none"
   stroke-linecap="round"
   id="path10196" />
	<ellipse
   cx="66.320999"
   cy="52.550995"
   rx="1.441"
   ry="1.966"
   style="opacity:1;fill:#0000ff;fill-opacity:0.788235;fill-rule:nonzero;stroke:none;stroke-width:1;stroke-linecap:butt;stroke-linejoin:miter;stroke-miterlimit:10;stroke-dasharray:none"
   id="ellipse10198" />
	<polygon
   points="82.53,80.98 82.53,15.54 7.47,15.63 7.47,81.07 1,81.07 1,9.02 89,8.93 89,80.98 "
   style="opacity:1;fill:#ffff00;fill-opacity:1;fill-rule:nonzero;stroke:none;stroke-width:1;stroke-linecap:butt;stroke-linejoin:miter;stroke-miterlimit:10;stroke-dasharray:none"
   id="polygon10200"
   transform="translate(0,5.715)" />
	<path
   d="M 7.475,87.789 H 1 c -0.552,0 -1,-0.447 -1,-1 V 14.73 c 0,-0.552 0.447,-1 0.999,-1 l 88,-0.089 H 89 c 0.265,0 0.52,0.105 0.707,0.292 C 89.894,14.12 90,14.375 90,14.641 V 86.7 c 0,0.553 -0.447,1 -1,1 h -6.475 c -0.553,0 -1,-0.447 -1,-1 V 22.253 L 8.475,22.34 v 64.449 c 0,0.553 -0.448,1 -1,1 z M 2,85.789 H 6.475 V 21.341 c 0,-0.552 0.447,-1 0.999,-1 l 75.05,-0.089 h 0.001 c 0.265,0 0.52,0.105 0.707,0.292 0.187,0.187 0.293,0.442 0.293,0.708 V 85.699 H 88 V 15.642 L 2,15.729 Z"
   style="display:inline;opacity:1;fill:#0000ff;fill-opacity:0.788235;fill-rule:nonzero;stroke:none;stroke-width:1;stroke-linecap:butt;stroke-linejoin:miter;stroke-miterlimit:10;stroke-dasharray:none"
   stroke-linecap="round"
   id="path10202" />
	<path
   d="M 82.525,82.074 H 7.475 c -0.552,0 -1,-0.447 -1,-1 0,-0.553 0.448,-1 1,-1 h 75.05 c 0.553,0 1,0.447 1,1 0,0.553 -0.447,1 -1,1 z"
   style="display:none;opacity:1;fill:#000000;fill-rule:nonzero;stroke:none;stroke-width:1;stroke-linecap:butt;stroke-linejoin:miter;stroke-miterlimit:10;stroke-dasharray:none"
   stroke-linecap="round"
   id="path10204" />
</g><g
               aria-label="SOLUTIONS, LLC"
               transform="translate(48.377045,2.1742417)"
               id="text7102"
               style="font-weight:bold;font-size:10.5833px;font-family:Athelas;-inkscape-font-specification:'Athelas Bold';text-align:center;letter-spacing:2.11667px;writing-mode:tb-rl;text-anchor:middle;fill:#0000ff;fill-opacity:0.788288;stroke-width:0.026598"><path
                 d="m 13.367921,128.54639 q -0.06574,-0.0759 -0.106185,-0.17369 -0.05662,-0.13692 -0.03199,-0.21582 0.03441,-0.083 0.08501,-0.12678 0.464438,-0.45547 0.559294,-0.91844 0.0989,-0.4532 -0.147811,-1.04978 -0.194134,-0.46944 -0.566366,-0.70489 -0.358407,-0.22972 -0.827848,-0.0356 -0.36186,0.14964 -0.485689,0.48716 -0.110005,0.34326 -0.122576,0.78366 -0.0085,0.45017 0.01295,0.94521 0.02552,0.50481 -0.05551,0.97351 -0.07699,0.47849 -0.337736,0.87264 -0.256704,0.40392 -0.823945,0.6385 -0.371641,0.15369 -0.7762989,0.17215 -0.4046584,0.0185 -0.7917433,-0.14214 -0.377305,-0.16464 -0.7174766,-0.51642 -0.3303916,-0.35583 -0.5730587,-0.94263 -0.2669337,-0.64548 -0.340325,-1.21067 -0.063611,-0.56922 -0.034862,-0.9705 0.4084072,-0.20325 0.7810766,-0.43753 0.3864938,-0.22855 0.7355587,-0.46452 0.079565,0.0816 0.1321424,0.20876 0.048533,0.11736 0.0239,0.19626 -0.014853,0.0749 -0.1062557,0.15847 -0.3190626,0.28083 -0.5281918,0.55055 -0.1993491,0.26568 -0.2904558,0.54386 -0.081327,0.27414 -0.050367,0.57055 0.035004,0.3062 0.1806047,0.65828 0.125378,0.30318 0.292596,0.48599 0.1769981,0.17876 0.3705406,0.25905 0.1935425,0.0803 0.4076739,0.0719 0.2141313,-0.008 0.4097316,-0.0893 0.4205403,-0.17391 0.5541493,-0.51547 0.147434,-0.33584 0.154269,-0.76241 0.02066,-0.42083 -0.01633,-0.898 -0.02317,-0.47142 0.04235,-0.92226 0.07934,-0.44511 0.320529,-0.83116 0.255014,-0.38032 0.841815,-0.62299 0.3912,-0.16178 0.780343,-0.16237 0.402967,0.005 0.760712,0.17788 0.367525,0.16868 0.671959,0.48943 0.308478,0.33054 0.514745,0.82932 0.169867,0.41076 0.251714,0.85792 0.08589,0.45694 0.09891,1.06999 -0.285311,0.1409 -0.640774,0.33371 -0.341638,0.19854 -0.610772,0.37856 z"
                 id="path1014" /><path
                 d="m 12.830156,131.49299 q 0.616378,-0.41099 1.306159,-0.54019 0.695652,-0.1204 1.370776,0.0146 0.675125,0.13498 1.262209,0.51945 0.601761,0.38742 1.012745,1.00379 0.422728,0.63399 0.566607,1.32671 0.14388,0.69271 0.01184,1.35316 -0.126168,0.66925 -0.519451,1.26221 -0.393284,0.59295 -1.036078,1.02155 -0.616379,0.41099 -1.320836,0.53726 -0.689781,0.1292 -1.364906,-0.006 -0.666318,-0.14085 -1.268079,-0.52826 -0.592956,-0.39328 -1.00394,-1.00966 -0.422728,-0.63399 -0.566607,-1.32671 -0.14388,-0.69271 -0.01184,-1.35316 0.132039,-0.66045 0.516517,-1.24753 0.393284,-0.59296 1.044884,-1.02742 z m -0.437003,4.7816 q 0.24659,0.36982 0.604709,0.56353 0.366924,0.18783 0.789606,0.21128 0.428553,0.0323 0.883511,-0.10574 0.460829,-0.12918 0.892294,-0.41687 0.625183,-0.41686 1.080116,-0.89828 0.460804,-0.47261 0.683848,-0.9775 0.23772,-0.50195 0.211265,-1.01855 -0.01178,-0.51368 -0.334696,-0.99797 -0.205492,-0.30819 -0.540129,-0.50483 -0.325831,-0.20251 -0.736773,-0.24651 -0.402137,-0.0499 -0.860032,0.0646 -0.457895,0.11451 -0.924581,0.42568 -0.6516,0.43447 -1.124144,0.92763 -0.466672,0.50197 -0.713198,1.00979 -0.231849,0.51076 -0.225941,1.01563 0.01471,0.49899 0.314145,0.94807 z"
                 id="path1016" /><path
                 d="m 18.079501,142.48596 q -0.157174,0.15713 -0.0075,0.41159 0.149639,0.25446 0.613559,0.71849 l 0.284338,0.28441 q 0.187065,0.18711 0.359174,0.28442 0.187076,0.0973 0.38913,0.10482 0.202054,0.008 0.434052,-0.0598 0.246965,-0.0673 0.546322,-0.20199 0.08232,-0.0374 0.172115,0.0524 0.03741,0.0374 0.06734,0.11227 0.02992,0.0748 0.05985,0.14967 -0.299363,0.17957 -0.636151,0.41152 -0.32182,0.23195 -0.628674,0.4639 -0.0973,0.0823 -0.164645,0.0599 -0.05987,-0.015 -0.104761,-0.0599 -0.05986,-0.0599 -0.164615,-0.17962 -0.09727,-0.11227 -0.216992,-0.24698 -0.127204,-0.12724 -0.254406,-0.26944 -0.11972,-0.13472 -0.216993,-0.23202 l -1.698548,-1.69897 q -0.216995,-0.21705 -0.508818,-0.49398 -0.291825,-0.26196 -0.531271,-0.47152 0.01497,-0.0449 0.05988,-0.0898 0.05239,-0.0524 0.07484,-0.0748 0.112267,-0.11223 0.194577,-0.0449 0.33673,0.23203 0.516327,0.29192 0.187079,0.0674 0.336768,-0.0823 l 3.749713,-3.74877 q 0.07484,-0.0748 0.104786,-0.13469 0.03743,-0.0674 0.02995,-0.14967 -0.0075,-0.0823 -0.08229,-0.20207 -0.05985,-0.11974 -0.194535,-0.29936 -0.05237,-0.0973 0.05241,-0.20205 0.02245,-0.0224 0.06736,-0.0673 0.04491,-0.0449 0.09729,-0.0673 0.224473,0.25446 0.478878,0.53887 0.261888,0.27692 0.471401,0.48649 0.104756,0.10478 0.239443,0.2395 0.142171,0.12724 0.28434,0.26944 0.157136,0.14221 0.30679,0.27693 0.157136,0.14221 0.284342,0.25448 -0.02994,0.0449 -0.07485,0.0898 -0.03742,0.0524 -0.05988,0.0748 -0.104782,0.10475 -0.202062,0.0524 -0.366658,-0.27694 -0.553741,-0.31438 -0.172116,-0.0374 -0.321805,0.11221 z"
                 id="path1018" /><path
                 d="m 28.161148,148.24658 q -0.335005,0.50167 -0.72273,0.85361 -0.381848,0.34314 -0.851594,0.47487 -0.455066,0.1288 -1.006802,0.002 -0.542935,-0.12076 -1.203037,-0.56155 -0.78332,-0.52308 -1.149849,-1.02236 -0.357728,-0.4934 -0.421941,-0.96896 -0.04953,-0.47849 0.132807,-0.94213 0.188218,-0.47243 0.499714,-0.9389 l 1.951256,-2.92205 q 0.123423,-0.18483 0.05602,-0.33165 -0.06152,-0.15562 -0.38419,-0.43471 -0.08506,-0.0823 0.01485,-0.23188 0.01763,-0.0264 0.04702,-0.0704 0.02939,-0.044 0.07638,-0.0763 0.243485,0.18805 0.513373,0.39372 0.284568,0.20275 0.680629,0.46723 0.308047,0.2057 0.648376,0.42024 0.346206,0.20573 0.622001,0.36445 -0.02059,0.0499 -0.04997,0.0939 -0.02059,0.0499 -0.03822,0.0763 -0.09991,0.14962 -0.208483,0.10257 -0.390242,-0.19696 -0.575158,-0.2059 -0.176115,-0.003 -0.29366,0.17295 l -1.821956,2.72842 q -0.611237,0.91534 -0.594159,1.61395 0.02588,0.70449 0.853207,1.25695 0.84493,0.56422 1.490849,0.35925 0.660596,-0.2079 1.330606,-1.21126 l 1.804324,-2.70201 q 0.117546,-0.17603 0.04722,-0.33753 -0.07032,-0.16149 -0.38419,-0.43471 -0.08798,-0.0969 0.0061,-0.23775 0.01763,-0.0264 0.04702,-0.0704 0.03819,-0.0381 0.07637,-0.0763 0.237608,0.19684 0.442963,0.3467 0.214156,0.15573 0.460594,0.32029 0.281644,0.18808 0.507555,0.32621 0.225911,0.13813 0.454775,0.25278 -0.02059,0.0499 -0.04997,0.0939 -0.02059,0.0499 -0.03822,0.0763 -0.09404,0.14082 -0.217285,0.0967 -0.349159,-0.18226 -0.531151,-0.17653 -0.176114,-0.003 -0.29366,0.17296 z"
                 id="path1020" /><path
                 d="m 35.813277,147.65393 -2.036635,5.18088 q -0.03872,0.0985 -0.05597,0.17132 -0.0035,0.0668 0.03621,0.13932 0.03974,0.0725 0.132595,0.15447 0.09673,0.0721 0.282106,0.17912 0.136128,0.0876 0.08192,0.22552 -0.01162,0.0296 -0.0447,0.0848 -0.02323,0.0591 -0.04857,0.0946 -0.307443,-0.1436 -0.664134,-0.30656 -0.350713,-0.14924 -0.626501,-0.25765 -0.285639,-0.11229 -0.644096,-0.24183 -0.352479,-0.11582 -0.67541,-0.22002 -0.0042,-0.0471 0.0092,-0.11011 0.02323,-0.0591 0.03485,-0.0887 0.0271,-0.0689 0.06229,-0.1006 0.04891,-0.0376 0.164997,-0.0147 0.383795,0.094 0.503416,0.0501 0.133344,-0.0499 0.210782,-0.24692 l 2.036635,-5.18089 -0.866764,-0.34073 q -0.275788,-0.10841 -0.496011,-0.12675 -0.206502,-0.0243 -0.400709,0.0358 -0.180486,0.0541 -0.372247,0.19481 -0.178041,0.1347 -0.396906,0.34433 -0.07425,0.0732 -0.182591,0.0306 -0.0591,-0.0232 -0.13015,-0.0739 -0.06718,-0.0605 -0.09884,-0.0957 0.161874,-0.20929 0.280816,-0.36722 0.122815,-0.16778 0.222058,-0.33346 0.128453,-0.21105 0.217847,-0.3806 0.08939,-0.16955 0.149918,-0.23673 0.07425,-0.0732 0.192441,-0.0267 0.108345,0.0426 0.411916,0.19604 0.313421,0.15732 0.766502,0.33543 l 3.033673,1.19255 q 0.443232,0.17424 0.770035,0.26859 0.336652,0.0982 0.454847,0.14469 0.108345,0.0426 0.122746,0.1506 -0.0014,0.0904 -0.06127,0.27157 -0.05,0.18504 -0.0898,0.43094 -0.04015,0.18891 -0.07431,0.39154 -0.02045,0.19665 -0.03458,0.46402 -0.05699,3.4e-4 -0.147404,-10e-4 -0.07669,-0.007 -0.135788,-0.0306 -0.108346,-0.0426 -0.122747,-0.15059 -0.01752,-0.30256 -0.06603,-0.52631 -0.03478,-0.22973 -0.139931,-0.39616 -0.09143,-0.1724 -0.269063,-0.29909 -0.163911,-0.13266 -0.42985,-0.2372 z"
                 id="path1022" /><path
                 d="m 40.854037,154.82215 q -0.02141,0.10364 -0.02604,0.17834 0.0079,0.0665 0.05936,0.13114 0.06184,0.0668 0.177652,0.13396 0.128314,0.0589 0.339542,0.13499 0.09936,0.0421 0.06724,0.19761 -0.0064,0.0311 -0.02964,0.0911 -0.01285,0.0622 -0.03178,0.1015 -0.327378,-0.0892 -0.706579,-0.18921 -0.370977,-0.0874 -0.661181,-0.14741 -0.300568,-0.0621 -0.675828,-0.12882 -0.377401,-0.0564 -0.713345,-0.10415 -0.01216,-0.0457 6.84e-4,-0.10793 0.01285,-0.0622 0.01927,-0.0933 0.03426,-0.16583 0.140047,-0.15478 0.224076,0.0139 0.354873,0.008 0.143303,-0.0136 0.216196,-0.0526 0.07289,-0.039 0.10647,-0.0969 0.03572,-0.0683 0.05713,-0.17192 l 1.072799,-5.19257 q 0.02141,-0.10364 0.01353,-0.17011 -0.0057,-0.0768 -0.05722,-0.1415 -0.05148,-0.0647 -0.179794,-0.1236 -0.115807,-0.0672 -0.327036,-0.14322 -0.09722,-0.0525 -0.06724,-0.1976 0.0064,-0.0311 0.01927,-0.0933 0.01285,-0.0622 0.04428,-0.10973 0.327379,0.0892 0.696215,0.18707 0.370978,0.0874 0.671545,0.14955 0.290204,0.0599 0.665464,0.12668 0.387766,0.0585 0.72371,0.10629 -3.43e-4,0.054 -0.01319,0.11615 -0.0025,0.0643 -0.0089,0.0954 -0.02998,0.1451 -0.140046,0.15478 -0.224077,-0.0139 -0.36738,-2.5e-4 -0.130796,0.005 -0.214054,0.0422 -0.07289,0.039 -0.108611,0.10724 -0.02321,0.06 -0.04463,0.16369 z"
                 id="path1024" /><path
                 d="m 44.385792,152.82326 q 0.01848,-0.7406 0.309661,-1.37912 0.301763,-0.63825 0.800587,-1.11279 0.498823,-0.47453 1.151067,-0.73351 0.663088,-0.26929 1.403688,-0.25082 0.761761,0.019 1.411122,0.29988 0.649361,0.28086 1.113582,0.76884 0.474801,0.48825 0.733514,1.15107 0.258714,0.66282 0.239443,1.43517 -0.01848,0.7406 -0.320505,1.38943 -0.291183,0.63852 -0.790006,1.11305 -0.49856,0.46396 -1.161648,0.73325 -0.662824,0.25872 -1.403424,0.24024 -0.761761,-0.019 -1.411121,-0.29988 -0.649361,-0.28086 -1.113583,-0.76884 -0.464221,-0.48798 -0.723198,-1.14022 -0.258714,-0.66283 -0.239179,-1.44575 z m 3.659508,3.10849 q 0.44436,0.0111 0.808832,-0.17038 0.364736,-0.19204 0.627104,-0.52427 0.272947,-0.33196 0.421838,-0.78347 0.159471,-0.45124 0.172406,-0.96966 0.01874,-0.75118 -0.113274,-1.40026 -0.121438,-0.64881 -0.406063,-1.12172 -0.273781,-0.48323 -0.711542,-0.75882 -0.426916,-0.2859 -1.008817,-0.30042 -0.3703,-0.009 -0.723664,0.15133 -0.3531,0.14999 -0.625519,0.46079 -0.272156,0.30022 -0.441943,0.74062 -0.169788,0.4404 -0.183778,1.00114 -0.01954,0.78292 0.111954,1.45316 0.14207,0.6705 0.415587,1.1643 0.284361,0.4835 0.700698,0.76914 0.416601,0.27505 0.956181,0.28852 z"
                 id="path1026" /><path
                 d="m 59.286167,152.83278 -0.736162,-3.68424 q -0.04562,-0.22832 -0.219957,-0.29062 -0.174335,-0.0623 -0.579073,-0.0354 -0.141137,-0.004 -0.174316,-0.17023 -0.0062,-0.0311 -0.01659,-0.083 -0.01037,-0.0519 1.9e-5,-0.10793 0.265675,-0.0207 0.516825,-0.0601 0.251149,-0.0394 0.58325,-0.10575 0.332101,-0.0664 0.568724,-0.12443 0.236624,-0.0581 0.4691,-0.13691 0.02075,0.0498 0.03112,0.10171 0.02075,0.0498 0.02697,0.081 0.03525,0.17643 -0.08514,0.22207 -0.332111,0.12032 -0.437985,0.23861 -0.105875,0.11829 -0.0644,0.32585 l 1.213112,6.07122 q -0.03944,0.0187 -0.143221,0.0394 -0.09133,0.029 -0.122464,0.0353 -0.07265,0.0145 -0.163967,-0.0104 -0.08925,-0.0145 -0.20546,-0.11004 l -5.125839,-4.37204 0.895836,4.48336 q 0.02074,0.10378 0.04563,0.17435 0.0332,0.0581 0.105836,0.0976 0.08094,0.027 0.213774,0.0436 0.141137,0.004 0.367373,0.002 0.05396,1e-5 0.09339,0.0353 0.04773,0.0228 0.07054,0.137 0.01452,0.0726 0.0145,0.18057 -0.263601,0.0311 -0.496068,0.056 -0.230393,0.0352 -0.53136,0.0954 -0.300966,0.0601 -0.579102,0.1265 -0.265685,0.0747 -0.489857,0.14105 -0.02905,-0.0374 -0.03942,-0.0892 -0.01037,-0.0519 -0.01659,-0.083 -0.02074,-0.10378 0.0021,-0.15152 0.03322,-0.0498 0.08304,-0.0705 0.361171,-0.13692 0.467046,-0.25521 0.105874,-0.11829 0.06647,-0.31547 l -1.04929,-5.25135 q -0.03318,-0.16605 -0.163928,-0.22626 -0.122445,-0.0727 -0.516805,-0.0478 -0.130759,-0.006 -0.163938,-0.1723 -0.0041,-0.0208 -0.0083,-0.0415 -0.0062,-0.0311 -0.0021,-0.0643 l -0.0062,-0.0851 q 0.147368,-0.0187 0.284357,-0.0352 0.134916,-0.027 0.271906,-0.0435 0.230393,-0.0352 0.460786,-0.0705 0.238697,-0.0477 0.383991,-0.0767 0.300967,-0.0601 0.400591,-0.0477 0.09755,0.002 0.184714,0.0602 z"
                 id="path1028" /><path
                 d="m 65.900456,147.4025 q -0.07564,0.066 -0.173284,0.10684 -0.136705,0.0571 -0.2157,0.0328 -0.08308,-0.0341 -0.127094,-0.0845 -0.457229,-0.46271 -0.920557,-0.55581 -0.453563,-0.0972 -1.049205,0.15179 -0.468703,0.19591 -0.702745,0.56903 -0.22836,0.35927 -0.03245,0.82797 0.151014,0.36129 0.489003,0.48384 0.343672,0.10871 0.784113,0.11961 0.450205,0.007 0.945152,-0.0165 0.504711,-0.0274 0.973722,0.0518 0.478775,0.0752 0.873905,0.33443 0.404894,0.25517 0.641618,0.82152 0.155095,0.37106 0.175087,0.77564 0.01999,0.40459 -0.139137,0.79228 -0.163211,0.37792 -0.513705,0.71943 -0.354576,0.33173 -0.940454,0.57662 -0.644465,0.26937 -1.209366,0.3449 -0.568983,0.0658 -0.970365,0.0385 -0.204796,-0.40763 -0.440488,-0.77941 -0.230009,-0.38563 -0.467302,-0.7338 0.08132,-0.0799 0.20826,-0.13293 0.117176,-0.049 0.196171,-0.0246 0.07491,0.0146 0.158868,0.10565 0.282035,0.318 0.55255,0.52611 0.266433,0.19834 0.544957,0.28839 0.274441,0.0803 0.570738,0.0482 0.306061,-0.0362 0.657588,-0.1831 0.302703,-0.12652 0.484874,-0.29443 0.178089,-0.17768 0.257653,-0.37152 0.07957,-0.19385 0.07037,-0.40794 -0.0092,-0.2141 -0.09082,-0.4094 -0.175502,-0.41987 -0.517573,-0.55219 -0.336387,-0.14616 -0.762981,-0.15138 -0.420912,-0.0191 -0.897931,0.0197 -0.471336,0.025 -0.92242,-0.0389 -0.4454,-0.0776 -0.832366,-0.31738 -0.381283,-0.25357 -0.62617,-0.83945 -0.163258,-0.39058 -0.165323,-0.77972 0.0036,-0.40298 0.174992,-0.76138 0.167292,-0.36816 0.486891,-0.67381 0.329364,-0.30972 0.82736,-0.51788 0.410114,-0.17142 0.856962,-0.25496 0.456612,-0.0876 1.069612,-0.10296 0.141973,0.28478 0.336127,0.63951 0.199836,0.34088 0.380868,0.60933 z"
                 id="path1030" /><path
                 d="m 71.741514,151.87719 q -0.25761,-0.0198 -0.338406,-0.15647 -0.04848,-0.082 -0.01703,-0.17435 0.100539,-0.39141 0.08764,-0.64197 -0.0075,-0.24145 -0.09909,-0.39632 -0.1185,-0.20042 -0.316064,-0.24344 -0.20295,-0.0521 -0.400912,-0.0335 -0.178079,0.0315 -0.296579,-0.1689 -0.107728,-0.1822 -0.08047,-0.4688 0.02187,-0.29571 0.249158,-0.63911 0.406697,-0.0191 0.810536,0.12321 0.403839,0.14237 0.630067,0.52499 0.204682,0.34618 0.177491,0.90323 -0.01808,0.55166 -0.40635,1.37138 z"
                 id="path1032" /><path
                 d="m 78.930883,143.4188 q 0.155031,0.15925 0.411456,0.013 0.256425,-0.14625 0.726587,-0.60396 l 0.288164,-0.28053 q 0.189582,-0.18456 0.289168,-0.35536 0.09979,-0.18577 0.109982,-0.3877 0.01019,-0.20194 -0.05404,-0.43481 -0.06403,-0.24784 -0.194707,-0.54896 -0.03631,-0.0828 0.05469,-0.1714 0.03792,-0.0369 0.113147,-0.0658 0.07523,-0.0289 0.15046,-0.0579 0.175572,0.30173 0.403022,0.64157 0.22765,0.32487 0.455502,0.63478 0.08101,0.0984 0.05765,0.16543 -0.01577,0.0597 -0.06127,0.10395 -0.06067,0.0591 -0.181798,0.16222 -0.113548,0.0958 -0.249845,0.21369 -0.128916,0.1255 -0.272797,0.2508 -0.136298,0.11792 -0.23488,0.21389 l -1.7214,1.67581 q -0.219915,0.21409 -0.500696,0.50221 -0.265816,0.28832 -0.478549,0.52495 -0.0447,-0.0156 -0.08899,-0.0611 -0.05168,-0.0531 -0.07382,-0.0758 -0.110737,-0.11374 -0.04229,-0.19515 0.236487,-0.33362 0.29876,-0.5124 0.06986,-0.18617 -0.07779,-0.33784 l -3.698602,-3.79921 q -0.07382,-0.0758 -0.133285,-0.10657 -0.06684,-0.0383 -0.149255,-0.0319 -0.08241,0.006 -0.203142,0.0796 -0.120529,0.0583 -0.301925,0.19054 -0.09798,0.0511 -0.201334,-0.0551 -0.02215,-0.0228 -0.06644,-0.0683 -0.04429,-0.0455 -0.06604,-0.0982 0.257429,-0.22107 0.545192,-0.47167 0.280379,-0.25819 0.492711,-0.46489 0.106165,-0.10336 0.242664,-0.23624 0.129116,-0.14047 0.273198,-0.28074 0.144283,-0.15523 0.280983,-0.30308 0.144282,-0.15523 0.258232,-0.28093 0.04449,0.0305 0.08879,0.076 0.05188,0.0381 0.07402,0.0609 0.103354,0.10616 0.04967,0.20274 -0.281785,0.36294 -0.32171,0.54951 -0.03972,0.17161 0.107925,0.32327 z"
                 id="path1034" /><path
                 d="m 84.177046,137.40938 q 0.180976,0.129 0.407166,-0.0607 0.226189,-0.18968 0.607062,-0.72399 l 0.233439,-0.32748 q 0.153578,-0.21545 0.221064,-0.40129 0.06501,-0.2006 0.03898,-0.40111 -0.02603,-0.20051 -0.130813,-0.41817 -0.107259,-0.23242 -0.289604,-0.50537 -0.05051,-0.075 0.0232,-0.17841 0.03072,-0.0431 0.09957,-0.085 0.06886,-0.0419 0.137712,-0.0838 0.226628,0.26553 0.511106,0.55929 0.282004,0.279 0.561534,0.54324 0.09727,0.0823 0.08627,0.15248 -0.0049,0.0615 -0.04172,0.11322 -0.04914,0.069 -0.14991,0.19207 -0.09462,0.11451 -0.207672,0.25487 -0.104433,0.1465 -0.223627,0.29548 -0.113051,0.14037 -0.192912,0.2524 l -1.394487,1.95626 q -0.17815,0.24992 -0.402971,0.58355 -0.210059,0.33115 -0.377117,0.60197 -0.04676,-0.007 -0.09847,-0.0442 -0.06033,-0.043 -0.08618,-0.0614 -0.129269,-0.0921 -0.07646,-0.18447 0.173113,-0.37048 0.20246,-0.55751 0.03549,-0.19565 -0.136869,-0.31851 l -4.317572,-3.0777 q -0.08618,-0.0614 -0.150173,-0.0811 -0.07261,-0.0258 -0.15256,-0.005 -0.07995,0.021 -0.185662,0.11459 -0.108189,0.0789 -0.263048,0.24139 -0.08728,0.0678 -0.207936,-0.0182 -0.02585,-0.0184 -0.07756,-0.0553 -0.05171,-0.0369 -0.08251,-0.0848 0.213816,-0.26349 0.452204,-0.56144 0.22977,-0.30411 0.401777,-0.54541 0.086,-0.12065 0.19658,-0.27577 0.101958,-0.16127 0.218677,-0.32501 0.114245,-0.1785 0.222346,-0.34838 0.114244,-0.1785 0.203916,-0.32253 0.04923,0.0221 0.10094,0.059 0.05785,0.0282 0.08371,0.0467 0.12065,0.086 0.08507,0.19062 -0.212447,0.40743 -0.218414,0.59813 -0.0084,0.17593 0.163915,0.2988 z"
                 id="path1036" /><path
                 d="m 89.697015,129.90984 q -0.370753,0.808 -0.898912,1.29924 -0.528159,0.49124 -1.141977,0.687 -0.623437,0.19135 -1.302884,0.12411 -0.684653,-0.0813 -1.367603,-0.39465 -0.567521,-0.2604 -1.056387,-0.71761 -0.488865,-0.4572 -0.760787,-1.08268 -0.281542,-0.62989 -0.274392,-1.40677 -0.0025,-0.7813 0.408007,-1.67587 0.2251,-0.49057 0.486637,-0.88291 0.26595,-0.40196 0.63013,-0.84035 0.268541,0.0999 0.699021,0.22759 0.430481,0.12766 0.863792,0.1984 -0.01245,0.0525 -0.02852,0.13829 -0.02569,0.0814 -0.04335,0.11984 -0.03531,0.077 -0.08103,0.12584 -0.05093,0.0349 -0.136705,0.0188 -0.365978,-0.0398 -0.639389,-0.002 -0.283029,0.0332 -0.496351,0.16816 -0.218526,0.12097 -0.390997,0.34458 -0.172471,0.22361 -0.326952,0.56027 -0.238341,0.51943 -0.240956,1.00729 -0.0078,0.47383 0.20526,0.89764 0.203462,0.4194 0.608587,0.77995 0.39992,0.34653 0.98668,0.61577 0.625235,0.28689 1.238933,0.37053 0.618111,0.074 1.144902,-0.0336 0.531205,-0.11722 0.937818,-0.41971 0.406614,-0.30248 0.622886,-0.77381 0.176549,-0.38476 0.232801,-0.68499 0.05105,-0.31426 -0.005,-0.57284 -0.06122,-0.27262 -0.23028,-0.51322 -0.16465,-0.25021 -0.419493,-0.50688 -0.06371,-0.0642 -0.06609,-0.13512 -0.0076,-0.085 0.02332,-0.15232 0.02207,-0.0481 0.0722,-0.1066 0.04493,-0.0725 0.08624,-0.11181 0.137041,0.13275 0.317763,0.29718 0.175517,0.1504 0.365858,0.31925 0.180722,0.16444 0.375477,0.32367 0.189549,0.14519 0.373893,0.27636 -0.129701,0.51105 -0.316325,1.01928 -0.186624,0.50822 -0.455861,1.09498 z"
                 id="path1038" /></g></g></g></g></g></g></svg>
