<?xml version="1.0" encoding="UTF-8" standalone="no"?>
<!-- Created with Inkscape (http://www.inkscape.org/) -->

<svg
   width="59.519821mm"
   height="43.433891mm"
   viewBox="0 0 59.519821 43.433891"
   version="1.1"
   id="svg5"
   xml:space="preserve"
   inkscape:version="1.2.1 (9c6d41e, 2022-07-14)"
   sodipodi:docname="zkidLogo.svg"
   inkscape:export-filename="zkidLogo_v1.svg"
   inkscape:export-xdpi="600.022"
   inkscape:export-ydpi="600.022"
   xmlns:inkscape="http://www.inkscape.org/namespaces/inkscape"
   xmlns:sodipodi="http://sodipodi.sourceforge.net/DTD/sodipodi-0.dtd"
   xmlns="http://www.w3.org/2000/svg"
   xmlns:svg="http://www.w3.org/2000/svg"><sodipodi:namedview
     id="namedview7"
     pagecolor="#ffffff"
     bordercolor="#666666"
     borderopacity="1.0"
     inkscape:showpageshadow="2"
     inkscape:pageopacity="0.0"
     inkscape:pagecheckerboard="0"
     inkscape:deskcolor="#d1d1d1"
     inkscape:document-units="mm"
     showgrid="false"
     inkscape:zoom="1.7183547"
     inkscape:cx="380.30566"
     inkscape:cy="368.95759"
     inkscape:window-width="1440"
     inkscape:window-height="900"
     inkscape:window-x="0"
     inkscape:window-y="0"
     inkscape:window-maximized="0"
     inkscape:current-layer="layer1" /><defs
     id="defs2" /><g
     inkscape:label="Layer 1"
     inkscape:groupmode="layer"
     id="layer1"
     transform="translate(-68.533586,-76.019201)"><path
       style="fill:#00cc00;stroke-width:0.0561799"
       d="m 104.92442,119.42312 c -4.5157,-0.29746 -8.696758,-1.9362 -12.310454,-4.82502 -1.136514,-0.90854 -2.824993,-2.67356 -3.729894,-3.89897 -0.725476,-0.98244 -1.492081,-2.22688 -2.022424,-3.28303 l -0.204527,-0.40731 h 0.416086 0.416087 l 0.385088,0.7163 c 1.359197,2.52821 3.443596,4.9568 5.782283,6.73709 6.291871,4.7896 14.815725,5.6127 21.917985,2.11652 4.4578,-2.19442 8.06364,-5.97689 10.01366,-10.50418 0.86258,-2.00261 1.38718,-4.0052 1.63902,-6.256762 0.0934,-0.83517 0.0934,-3.322143 0,-4.157313 -0.40515,-3.622167 -1.55157,-6.771206 -3.52304,-9.677259 -5.14423,-7.582849 -14.54346,-10.961292 -23.30976,-8.378423 -2.236463,0.658942 -4.652666,1.863847 -6.519978,3.251359 -2.492337,1.851941 -4.567452,4.238095 -6.001943,6.901575 l -0.383315,0.711716 h -0.416087 -0.416086 l 0.204527,-0.407304 c 1.069576,-2.130006 2.479033,-4.066742 4.187761,-5.754408 1.765999,-1.744231 3.459833,-2.95586 5.637243,-4.032421 3.763848,-1.860927 7.729878,-2.566414 11.985618,-2.132025 6.83223,0.697375 13.04029,4.748466 16.5065,10.771368 4.18872,7.278331 3.77024,16.465977 -1.06187,23.313127 -3.6252,5.13695 -9.26071,8.46085 -15.44463,9.10947 -1.03727,0.1088 -2.79029,0.14898 -3.74785,0.0859 z m 7.32408,-14.23515 c -1.37077,-0.26505 -2.20173,-0.97388 -2.81134,-2.39814 -0.42261,-0.98736 -0.55957,-1.82226 -0.51414,-3.134022 0.0644,-1.85884 0.54523,-3.172475 1.48245,-4.049924 0.72163,-0.675609 1.45712,-0.954469 2.62955,-0.996992 1.32272,-0.04797 2.11387,0.271495 2.79052,1.126823 l 0.21511,0.2719 v -2.302658 -2.302658 l -0.75843,-0.186243 -0.75843,-0.186243 v -0.409411 -0.409411 h 1.6854 1.68539 l 5.7e-4,6.839908 5.6e-4,6.839911 0.7158,0.16946 0.7158,0.16947 0.0164,0.43447 0.0164,0.43447 h -0.1465 c -0.0806,0 -0.74106,0.04 -1.46773,0.0889 -0.72667,0.0489 -1.33248,0.0777 -1.34624,0.0639 -0.0138,-0.0138 -0.0535,-0.32556 -0.0884,-0.69289 -0.0348,-0.36732 -0.0721,-0.67844 -0.0828,-0.69137 -0.0107,-0.0129 -0.1641,0.1364 -0.34098,0.33185 -0.39612,0.43773 -0.77254,0.68359 -1.3452,0.87861 -0.36891,0.12564 -0.55744,0.15271 -1.1701,0.16801 -0.45847,0.0114 -0.87673,-0.0101 -1.1236,-0.0578 z m 2.07976,-1.07511 c 1.13814,-0.31163 1.65934,-1.59186 1.66154,-4.0813 0.003,-2.884816 -0.69694,-4.245348 -2.26372,-4.403024 -0.71315,-0.07177 -1.38935,0.143305 -1.86504,0.593196 -0.54564,0.516042 -0.76887,1.210023 -0.88565,2.753326 -0.11689,1.545002 0.0821,3.110512 0.50917,4.005322 0.2018,0.42285 0.66646,0.88928 1.05884,1.06289 0.46662,0.20646 1.18296,0.23439 1.78486,0.0696 z m -37.893526,0.35379 9.5e-4,-0.63202 4.015916,-5.643932 c 2.208753,-3.104163 4.015915,-5.651221 4.015915,-5.660131 0,-0.0089 -1.30829,-0.01616 -2.907312,-0.01612 l -2.907311,5.7e-5 -0.304033,1.460595 -0.304034,1.460596 h -0.52462 -0.524622 v -2.050568 -2.050568 h 4.859565 4.859565 v 0.622374 0.622373 l -3.988776,5.607632 c -2.193826,3.084202 -3.988776,5.622962 -3.988776,5.641692 0,0.0187 1.502515,0.0341 3.338921,0.0341 3.131594,0 3.340693,-0.006 3.367471,-0.0983 0.0157,-0.0541 0.144899,-0.70506 0.287102,-1.44664 0.142203,-0.74157 0.271808,-1.39256 0.28801,-1.44663 0.02549,-0.0851 0.104709,-0.0983 0.587474,-0.0983 h 0.558013 v 2.16293 2.16293 h -5.365184 -5.365184 l 9.49e-4,-0.63202 z m 12.414817,0.1872 v -0.44483 l 0.519664,-0.11673 c 0.285816,-0.0642 0.67135,-0.15044 0.856744,-0.19164 l 0.33708,-0.0749 v -5.611352 -5.611353 l -0.42135,-0.09481 c -0.231742,-0.05214 -0.617277,-0.137833 -0.856744,-0.190422 l -0.435394,-0.09562 v -0.4438 -0.4438 h 2.668547 2.668547 v 0.437342 0.437342 l -0.800564,0.197048 -0.800564,0.197049 -0.01458,2.7053 -0.01458,2.705294 0.832975,-0.853722 c 0.458136,-0.46955 1.636723,-1.686634 2.619082,-2.704629 l 1.786107,-1.8509 -0.848877,-0.195013 -0.848875,-0.195013 v -0.440049 -0.440049 h 2.528097 2.528104 v 0.440786 0.440786 l -0.74438,0.177772 c -0.409414,0.09777 -0.779184,0.177512 -0.821704,0.177194 -0.0716,-5.62e-4 -4.501924,4.36409 -4.500891,4.434192 3.93e-4,0.02584 5.483305,6.686087 5.607535,6.811617 0.0209,0.0212 0.39835,0.11992 0.83866,0.21945 l 0.80056,0.18096 v 0.44066 0.44067 h -2.696644 -2.696638 v -0.43943 -0.43942 l 0.616901,-0.1926 0.6169,-0.1926 -1.88583,-2.33147 c -1.037209,-1.28231 -2.036327,-2.515582 -2.220264,-2.740622 l -0.33443,-0.40915 -0.587657,0.54876 -0.587655,0.54877 v 2.175642 2.17565 l 0.210674,0.0556 c 0.115872,0.0306 0.482446,0.12313 0.81461,0.20572 l 0.603934,0.15018 v 0.4425 0.44251 h -2.668547 -2.668547 z m 13.944309,0.0153 0.0164,-0.42951 0.71629,-0.17078 0.7163,-0.17078 v -3.971452 -3.971452 l -0.52295,-0.120842 c -0.28762,-0.06646 -0.61627,-0.14661 -0.73034,-0.178105 l -0.20739,-0.05727 V 95.18025 94.761541 h 1.6854 1.6854 v 4.567617 4.567602 l 0.54775,0.13194 c 0.30127,0.0726 0.62992,0.15457 0.73034,0.18224 l 0.18258,0.0503 v 0.41872 0.41871 h -2.4181 -2.41809 z m 2.0756,-11.767259 c -0.35236,-0.06703 -0.58013,-0.219643 -0.72894,-0.488394 -0.26346,-0.475808 -0.2142,-1.131182 0.11304,-1.503884 0.21373,-0.243426 0.3918,-0.339347 0.72038,-0.38805 0.55093,-0.08166 1.09943,0.176388 1.29628,0.609855 0.19563,0.430805 0.11587,1.150329 -0.16152,1.457078 -0.23993,0.265315 -0.77745,0.401249 -1.23924,0.313395 z"
       id="path356" /><text
       xml:space="preserve"
       style="font-size:14.1111px;line-height:1.25;font-family:sans-serif;text-align:center;text-anchor:middle;fill:#00cc00;fill-opacity:1;stroke:#00cc00;stroke-width:0.365;stroke-dasharray:none;stroke-opacity:1"
       x="71.906242"
       y="105.01083"
       id="text412"><tspan
         sodipodi:role="line"
         id="tspan410"
         style="font-style:normal;font-variant:normal;font-weight:normal;font-stretch:normal;font-size:14.1111px;font-family:sans-serif;-inkscape-font-specification:sans-serif;fill:#00cc00;fill-opacity:1;stroke:#00cc00;stroke-width:0.365;stroke-dasharray:none;stroke-opacity:1"
         x="71.906242"
         y="105.01083">n</tspan></text></g></svg>
